solid OpenSCAD_Model
  facet normal -1 0 0
    outer loop
      vertex 0 0 -13
      vertex 0 10 2
      vertex 0 10 -13
    endloop
  endfacet
  facet normal -1 -0 0
    outer loop
      vertex 0 10 2
      vertex 0 0 -13
      vertex 0 0 2
    endloop
  endfacet
  facet normal 0 0 1
    outer loop
      vertex 17 10 2
      vertex 7.95 5 2
      vertex 17 0 2
    endloop
  endfacet
  facet normal 0 0 1
    outer loop
      vertex 17 10 2
      vertex 7.91582 5.39071 2
      vertex 7.95 5 2
    endloop
  endfacet
  facet normal 0 0 1
    outer loop
      vertex 17 10 2
      vertex 7.81431 5.76954 2
      vertex 7.91582 5.39071 2
    endloop
  endfacet
  facet normal 0 0 1
    outer loop
      vertex 17 10 2
      vertex 7.64856 6.125 2
      vertex 7.81431 5.76954 2
    endloop
  endfacet
  facet normal 0 0 1
    outer loop
      vertex 17 10 2
      vertex 7.4236 6.44627 2
      vertex 7.64856 6.125 2
    endloop
  endfacet
  facet normal 0 0 1
    outer loop
      vertex 17 10 2
      vertex 7.14627 6.7236 2
      vertex 7.4236 6.44627 2
    endloop
  endfacet
  facet normal 0 0 1
    outer loop
      vertex 17 10 2
      vertex 6.825 6.94856 2
      vertex 7.14627 6.7236 2
    endloop
  endfacet
  facet normal 0 0 1
    outer loop
      vertex 17 10 2
      vertex 6.46954 7.11431 2
      vertex 6.825 6.94856 2
    endloop
  endfacet
  facet normal 0 0 1
    outer loop
      vertex 17 10 2
      vertex 6.09071 7.21582 2
      vertex 6.46954 7.11431 2
    endloop
  endfacet
  facet normal -0 0 1
    outer loop
      vertex 0 10 2
      vertex 6.09071 7.21582 2
      vertex 17 10 2
    endloop
  endfacet
  facet normal 0 0 1
    outer loop
      vertex 6.09071 7.21582 2
      vertex 0 10 2
      vertex 5.7 7.25 2
    endloop
  endfacet
  facet normal 0 0 1
    outer loop
      vertex 3.48418 5.39071 2
      vertex 0 10 2
      vertex 3.45 5 2
    endloop
  endfacet
  facet normal 0 0 1
    outer loop
      vertex 3.58569 5.76954 2
      vertex 0 10 2
      vertex 3.48418 5.39071 2
    endloop
  endfacet
  facet normal 0 0 1
    outer loop
      vertex 3.75144 6.125 2
      vertex 0 10 2
      vertex 3.58569 5.76954 2
    endloop
  endfacet
  facet normal 0 0 1
    outer loop
      vertex 3.9764 6.44627 2
      vertex 0 10 2
      vertex 3.75144 6.125 2
    endloop
  endfacet
  facet normal 0 0 1
    outer loop
      vertex 4.25373 6.7236 2
      vertex 0 10 2
      vertex 3.9764 6.44627 2
    endloop
  endfacet
  facet normal 0 0 1
    outer loop
      vertex 4.575 6.94856 2
      vertex 0 10 2
      vertex 4.25373 6.7236 2
    endloop
  endfacet
  facet normal 0 0 1
    outer loop
      vertex 4.93045 7.11431 2
      vertex 0 10 2
      vertex 4.575 6.94856 2
    endloop
  endfacet
  facet normal 0 0 1
    outer loop
      vertex 5.30929 7.21582 2
      vertex 0 10 2
      vertex 4.93045 7.11431 2
    endloop
  endfacet
  facet normal 0 0 1
    outer loop
      vertex 5.7 7.25 2
      vertex 0 10 2
      vertex 5.30929 7.21582 2
    endloop
  endfacet
  facet normal -0 0 1
    outer loop
      vertex 7.91582 4.60929 2
      vertex 17 0 2
      vertex 7.95 5 2
    endloop
  endfacet
  facet normal -0 0 1
    outer loop
      vertex 7.81431 4.23045 2
      vertex 17 0 2
      vertex 7.91582 4.60929 2
    endloop
  endfacet
  facet normal -0 0 1
    outer loop
      vertex 7.64856 3.875 2
      vertex 17 0 2
      vertex 7.81431 4.23045 2
    endloop
  endfacet
  facet normal -0 0 1
    outer loop
      vertex 7.4236 3.55373 2
      vertex 17 0 2
      vertex 7.64856 3.875 2
    endloop
  endfacet
  facet normal -0 0 1
    outer loop
      vertex 7.14627 3.2764 2
      vertex 17 0 2
      vertex 7.4236 3.55373 2
    endloop
  endfacet
  facet normal -0 0 1
    outer loop
      vertex 6.825 3.05144 2
      vertex 17 0 2
      vertex 7.14627 3.2764 2
    endloop
  endfacet
  facet normal -0 0 1
    outer loop
      vertex 6.46954 2.88569 2
      vertex 17 0 2
      vertex 6.825 3.05144 2
    endloop
  endfacet
  facet normal -0 0 1
    outer loop
      vertex 6.09071 2.78418 2
      vertex 17 0 2
      vertex 6.46954 2.88569 2
    endloop
  endfacet
  facet normal 0 0 1
    outer loop
      vertex 0 0 2
      vertex 6.09071 2.78418 2
      vertex 5.7 2.75 2
    endloop
  endfacet
  facet normal 0 0 1
    outer loop
      vertex 0 0 2
      vertex 5.7 2.75 2
      vertex 5.30929 2.78418 2
    endloop
  endfacet
  facet normal 0 0 1
    outer loop
      vertex 0 0 2
      vertex 3.45 5 2
      vertex 0 10 2
    endloop
  endfacet
  facet normal 0 0 1
    outer loop
      vertex 3.45 5 2
      vertex 0 0 2
      vertex 3.48418 4.60929 2
    endloop
  endfacet
  facet normal 0 0 1
    outer loop
      vertex 3.48418 4.60929 2
      vertex 0 0 2
      vertex 3.58569 4.23045 2
    endloop
  endfacet
  facet normal 0 0 1
    outer loop
      vertex 6.09071 2.78418 2
      vertex 0 0 2
      vertex 17 0 2
    endloop
  endfacet
  facet normal 0 0 1
    outer loop
      vertex 4.93045 2.88569 2
      vertex 0 0 2
      vertex 5.30929 2.78418 2
    endloop
  endfacet
  facet normal 0 0 1
    outer loop
      vertex 4.575 3.05144 2
      vertex 0 0 2
      vertex 4.93045 2.88569 2
    endloop
  endfacet
  facet normal 0 0 1
    outer loop
      vertex 4.25373 3.2764 2
      vertex 0 0 2
      vertex 4.575 3.05144 2
    endloop
  endfacet
  facet normal 0 0 1
    outer loop
      vertex 3.9764 3.55373 2
      vertex 0 0 2
      vertex 4.25373 3.2764 2
    endloop
  endfacet
  facet normal 0 0 1
    outer loop
      vertex 3.75144 3.875 2
      vertex 0 0 2
      vertex 3.9764 3.55373 2
    endloop
  endfacet
  facet normal 0 0 1
    outer loop
      vertex 3.58569 4.23045 2
      vertex 0 0 2
      vertex 3.75144 3.875 2
    endloop
  endfacet
  facet normal 1 -0 0
    outer loop
      vertex 17 0 2
      vertex 17 10 0
      vertex 17 10 2
    endloop
  endfacet
  facet normal 1 0 0
    outer loop
      vertex 17 10 0
      vertex 17 0 2
      vertex 17 0 0
    endloop
  endfacet
  facet normal 0 0 -1
    outer loop
      vertex 17 0 0
      vertex 7.95 5 0
      vertex 17 10 0
    endloop
  endfacet
  facet normal 0 0 -1
    outer loop
      vertex 17 0 0
      vertex 7.91582 4.60929 0
      vertex 7.95 5 0
    endloop
  endfacet
  facet normal 0 0 -1
    outer loop
      vertex 17 0 0
      vertex 7.81431 4.23045 0
      vertex 7.91582 4.60929 0
    endloop
  endfacet
  facet normal 0 0 -1
    outer loop
      vertex 17 0 0
      vertex 7.64856 3.875 0
      vertex 7.81431 4.23045 0
    endloop
  endfacet
  facet normal 0 0 -1
    outer loop
      vertex 17 0 0
      vertex 7.4236 3.55373 0
      vertex 7.64856 3.875 0
    endloop
  endfacet
  facet normal 0 0 -1
    outer loop
      vertex 17 0 0
      vertex 7.14627 3.2764 0
      vertex 7.4236 3.55373 0
    endloop
  endfacet
  facet normal 0 0 -1
    outer loop
      vertex 17 0 0
      vertex 6.825 3.05144 0
      vertex 7.14627 3.2764 0
    endloop
  endfacet
  facet normal 0 0 -1
    outer loop
      vertex 17 0 0
      vertex 6.46954 2.88569 0
      vertex 6.825 3.05144 0
    endloop
  endfacet
  facet normal 0 0 -1
    outer loop
      vertex 2 0 0
      vertex 6.46954 2.88569 0
      vertex 17 0 0
    endloop
  endfacet
  facet normal 0 0 -1
    outer loop
      vertex 6.46954 2.88569 0
      vertex 2 0 0
      vertex 6.09071 2.78418 0
    endloop
  endfacet
  facet normal 0 0 -1
    outer loop
      vertex 6.09071 2.78418 0
      vertex 2 0 0
      vertex 5.7 2.75 0
    endloop
  endfacet
  facet normal -0 0 -1
    outer loop
      vertex 3.48418 4.60929 0
      vertex 2 0 0
      vertex 3.45 5 0
    endloop
  endfacet
  facet normal -0 0 -1
    outer loop
      vertex 3.58569 4.23045 0
      vertex 2 0 0
      vertex 3.48418 4.60929 0
    endloop
  endfacet
  facet normal -0 0 -1
    outer loop
      vertex 3.75144 3.875 0
      vertex 2 0 0
      vertex 3.58569 4.23045 0
    endloop
  endfacet
  facet normal -0 0 -1
    outer loop
      vertex 3.9764 3.55373 0
      vertex 2 0 0
      vertex 3.75144 3.875 0
    endloop
  endfacet
  facet normal -0 0 -1
    outer loop
      vertex 4.25373 3.2764 0
      vertex 2 0 0
      vertex 3.9764 3.55373 0
    endloop
  endfacet
  facet normal -0 0 -1
    outer loop
      vertex 4.575 3.05144 0
      vertex 2 0 0
      vertex 4.25373 3.2764 0
    endloop
  endfacet
  facet normal -0 0 -1
    outer loop
      vertex 4.93045 2.88569 0
      vertex 2 0 0
      vertex 4.575 3.05144 0
    endloop
  endfacet
  facet normal -0 0 -1
    outer loop
      vertex 5.30929 2.78418 0
      vertex 2 0 0
      vertex 4.93045 2.88569 0
    endloop
  endfacet
  facet normal -0 0 -1
    outer loop
      vertex 5.7 2.75 0
      vertex 2 0 0
      vertex 5.30929 2.78418 0
    endloop
  endfacet
  facet normal 0 0 -1
    outer loop
      vertex 7.91582 5.39071 0
      vertex 17 10 0
      vertex 7.95 5 0
    endloop
  endfacet
  facet normal 0 0 -1
    outer loop
      vertex 7.81431 5.76954 0
      vertex 17 10 0
      vertex 7.91582 5.39071 0
    endloop
  endfacet
  facet normal 0 0 -1
    outer loop
      vertex 7.64856 6.125 0
      vertex 17 10 0
      vertex 7.81431 5.76954 0
    endloop
  endfacet
  facet normal 0 0 -1
    outer loop
      vertex 7.4236 6.44627 0
      vertex 17 10 0
      vertex 7.64856 6.125 0
    endloop
  endfacet
  facet normal 0 0 -1
    outer loop
      vertex 7.14627 6.7236 0
      vertex 17 10 0
      vertex 7.4236 6.44627 0
    endloop
  endfacet
  facet normal 0 0 -1
    outer loop
      vertex 6.825 6.94856 0
      vertex 17 10 0
      vertex 7.14627 6.7236 0
    endloop
  endfacet
  facet normal 0 0 -1
    outer loop
      vertex 6.46954 7.11431 0
      vertex 17 10 0
      vertex 6.825 6.94856 0
    endloop
  endfacet
  facet normal 0 0 -1
    outer loop
      vertex 2 10 0
      vertex 6.46954 7.11431 0
      vertex 6.09071 7.21582 0
    endloop
  endfacet
  facet normal 0 0 -1
    outer loop
      vertex 2 10 0
      vertex 6.09071 7.21582 0
      vertex 5.7 7.25 0
    endloop
  endfacet
  facet normal 0 0 -1
    outer loop
      vertex 2 10 0
      vertex 5.7 7.25 0
      vertex 5.30929 7.21582 0
    endloop
  endfacet
  facet normal 0 0 -1
    outer loop
      vertex 2 10 0
      vertex 3.45 5 0
      vertex 2 0 0
    endloop
  endfacet
  facet normal 0 0 -1
    outer loop
      vertex 3.45 5 0
      vertex 2 10 0
      vertex 3.48418 5.39071 0
    endloop
  endfacet
  facet normal 0 0 -1
    outer loop
      vertex 6.46954 7.11431 0
      vertex 2 10 0
      vertex 17 10 0
    endloop
  endfacet
  facet normal 0 0 -1
    outer loop
      vertex 4.93045 7.11431 0
      vertex 2 10 0
      vertex 5.30929 7.21582 0
    endloop
  endfacet
  facet normal 0 0 -1
    outer loop
      vertex 4.575 6.94856 0
      vertex 2 10 0
      vertex 4.93045 7.11431 0
    endloop
  endfacet
  facet normal 0 0 -1
    outer loop
      vertex 4.25373 6.7236 0
      vertex 2 10 0
      vertex 4.575 6.94856 0
    endloop
  endfacet
  facet normal 0 0 -1
    outer loop
      vertex 3.9764 6.44627 0
      vertex 2 10 0
      vertex 4.25373 6.7236 0
    endloop
  endfacet
  facet normal 0 0 -1
    outer loop
      vertex 3.75144 6.125 0
      vertex 2 10 0
      vertex 3.9764 6.44627 0
    endloop
  endfacet
  facet normal 0 0 -1
    outer loop
      vertex 3.58569 5.76954 0
      vertex 2 10 0
      vertex 3.75144 6.125 0
    endloop
  endfacet
  facet normal 0 0 -1
    outer loop
      vertex 3.48418 5.39071 0
      vertex 2 10 0
      vertex 3.58569 5.76954 0
    endloop
  endfacet
  facet normal 0 -1 0
    outer loop
      vertex 0 0 2
      vertex 2 0 0
      vertex 17 0 2
    endloop
  endfacet
  facet normal 0 -1 0
    outer loop
      vertex 0 0 -13
      vertex 2 0 0
      vertex 0 0 2
    endloop
  endfacet
  facet normal 0 -1 -0
    outer loop
      vertex 2 0 0
      vertex 0 0 -13
      vertex 2 0 -13
    endloop
  endfacet
  facet normal 0 -1 -0
    outer loop
      vertex 17 0 2
      vertex 2 0 0
      vertex 17 0 0
    endloop
  endfacet
  facet normal 0 1 0
    outer loop
      vertex 2 10 0
      vertex 17 10 2
      vertex 17 10 0
    endloop
  endfacet
  facet normal 0 1 0
    outer loop
      vertex 17 10 2
      vertex 2 10 0
      vertex 0 10 2
    endloop
  endfacet
  facet normal 0 1 0
    outer loop
      vertex 0 10 -13
      vertex 2 10 0
      vertex 2 10 -13
    endloop
  endfacet
  facet normal 0 1 0
    outer loop
      vertex 2 10 0
      vertex 0 10 -13
      vertex 0 10 2
    endloop
  endfacet
  facet normal -0.996195 -0.0871489 0
    outer loop
      vertex 7.95 5 0
      vertex 7.91582 5.39071 2
      vertex 7.91582 5.39071 0
    endloop
  endfacet
  facet normal -0.996195 -0.0871489 0
    outer loop
      vertex 7.91582 5.39071 2
      vertex 7.95 5 0
      vertex 7.95 5 2
    endloop
  endfacet
  facet normal 0.0871489 -0.996195 0
    outer loop
      vertex 5.30929 7.21582 0
      vertex 5.7 7.25 2
      vertex 5.30929 7.21582 2
    endloop
  endfacet
  facet normal 0.0871489 -0.996195 0
    outer loop
      vertex 5.7 7.25 2
      vertex 5.30929 7.21582 0
      vertex 5.7 7.25 0
    endloop
  endfacet
  facet normal -0.573584 -0.819147 0
    outer loop
      vertex 6.825 6.94856 0
      vertex 7.14627 6.7236 2
      vertex 6.825 6.94856 2
    endloop
  endfacet
  facet normal -0.573584 -0.819147 -0
    outer loop
      vertex 7.14627 6.7236 2
      vertex 6.825 6.94856 0
      vertex 7.14627 6.7236 0
    endloop
  endfacet
  facet normal 0.819147 -0.573584 0
    outer loop
      vertex 3.75144 6.125 2
      vertex 3.9764 6.44627 0
      vertex 3.9764 6.44627 2
    endloop
  endfacet
  facet normal 0.819147 -0.573584 0
    outer loop
      vertex 3.9764 6.44627 0
      vertex 3.75144 6.125 2
      vertex 3.75144 6.125 0
    endloop
  endfacet
  facet normal 0.42262 -0.906307 0
    outer loop
      vertex 4.575 6.94856 0
      vertex 4.93045 7.11431 2
      vertex 4.575 6.94856 2
    endloop
  endfacet
  facet normal 0.42262 -0.906307 0
    outer loop
      vertex 4.93045 7.11431 2
      vertex 4.575 6.94856 0
      vertex 4.93045 7.11431 0
    endloop
  endfacet
  facet normal 0.707107 0.707107 0
    outer loop
      vertex 4.25373 3.2764 2
      vertex 3.9764 3.55373 0
      vertex 3.9764 3.55373 2
    endloop
  endfacet
  facet normal 0.707107 0.707107 0
    outer loop
      vertex 3.9764 3.55373 0
      vertex 4.25373 3.2764 2
      vertex 4.25373 3.2764 0
    endloop
  endfacet
  facet normal -0.906311 -0.42261 0
    outer loop
      vertex 7.81431 5.76954 0
      vertex 7.64856 6.125 2
      vertex 7.64856 6.125 0
    endloop
  endfacet
  facet normal -0.906311 -0.42261 0
    outer loop
      vertex 7.64856 6.125 2
      vertex 7.81431 5.76954 0
      vertex 7.81431 5.76954 2
    endloop
  endfacet
  facet normal -0.965924 -0.258826 0
    outer loop
      vertex 7.91582 5.39071 0
      vertex 7.81431 5.76954 2
      vertex 7.81431 5.76954 0
    endloop
  endfacet
  facet normal -0.965924 -0.258826 0
    outer loop
      vertex 7.81431 5.76954 2
      vertex 7.91582 5.39071 0
      vertex 7.91582 5.39071 2
    endloop
  endfacet
  facet normal -0.819147 -0.573584 0
    outer loop
      vertex 7.64856 6.125 0
      vertex 7.4236 6.44627 2
      vertex 7.4236 6.44627 0
    endloop
  endfacet
  facet normal -0.819147 -0.573584 0
    outer loop
      vertex 7.4236 6.44627 2
      vertex 7.64856 6.125 0
      vertex 7.64856 6.125 2
    endloop
  endfacet
  facet normal -0.258826 -0.965924 0
    outer loop
      vertex 6.09071 7.21582 0
      vertex 6.46954 7.11431 2
      vertex 6.09071 7.21582 2
    endloop
  endfacet
  facet normal -0.258826 -0.965924 -0
    outer loop
      vertex 6.46954 7.11431 2
      vertex 6.09071 7.21582 0
      vertex 6.46954 7.11431 0
    endloop
  endfacet
  facet normal -0.0871489 -0.996195 0
    outer loop
      vertex 5.7 7.25 0
      vertex 6.09071 7.21582 2
      vertex 5.7 7.25 2
    endloop
  endfacet
  facet normal -0.0871489 -0.996195 -0
    outer loop
      vertex 6.09071 7.21582 2
      vertex 5.7 7.25 0
      vertex 6.09071 7.21582 0
    endloop
  endfacet
  facet normal -0.42261 -0.906311 0
    outer loop
      vertex 6.46954 7.11431 0
      vertex 6.825 6.94856 2
      vertex 6.46954 7.11431 2
    endloop
  endfacet
  facet normal -0.42261 -0.906311 -0
    outer loop
      vertex 6.825 6.94856 2
      vertex 6.46954 7.11431 0
      vertex 6.825 6.94856 0
    endloop
  endfacet
  facet normal 0.965924 -0.258826 0
    outer loop
      vertex 3.48418 5.39071 2
      vertex 3.58569 5.76954 0
      vertex 3.58569 5.76954 2
    endloop
  endfacet
  facet normal 0.965924 -0.258826 0
    outer loop
      vertex 3.58569 5.76954 0
      vertex 3.48418 5.39071 2
      vertex 3.48418 5.39071 0
    endloop
  endfacet
  facet normal 0.906311 -0.42261 0
    outer loop
      vertex 3.58569 5.76954 2
      vertex 3.75144 6.125 0
      vertex 3.75144 6.125 2
    endloop
  endfacet
  facet normal 0.906311 -0.42261 0
    outer loop
      vertex 3.75144 6.125 0
      vertex 3.58569 5.76954 2
      vertex 3.58569 5.76954 0
    endloop
  endfacet
  facet normal 0.996195 -0.0871489 0
    outer loop
      vertex 3.45 5 2
      vertex 3.48418 5.39071 0
      vertex 3.48418 5.39071 2
    endloop
  endfacet
  facet normal 0.996195 -0.0871489 0
    outer loop
      vertex 3.48418 5.39071 0
      vertex 3.45 5 2
      vertex 3.45 5 0
    endloop
  endfacet
  facet normal 0.573584 -0.819147 0
    outer loop
      vertex 4.25373 6.7236 0
      vertex 4.575 6.94856 2
      vertex 4.25373 6.7236 2
    endloop
  endfacet
  facet normal 0.573584 -0.819147 0
    outer loop
      vertex 4.575 6.94856 2
      vertex 4.25373 6.7236 0
      vertex 4.575 6.94856 0
    endloop
  endfacet
  facet normal 0.258819 -0.965926 0
    outer loop
      vertex 4.93045 7.11431 0
      vertex 5.30929 7.21582 2
      vertex 4.93045 7.11431 2
    endloop
  endfacet
  facet normal 0.258819 -0.965926 0
    outer loop
      vertex 5.30929 7.21582 2
      vertex 4.93045 7.11431 0
      vertex 5.30929 7.21582 0
    endloop
  endfacet
  facet normal -0.258826 0.965924 0
    outer loop
      vertex 6.46954 2.88569 0
      vertex 6.09071 2.78418 2
      vertex 6.46954 2.88569 2
    endloop
  endfacet
  facet normal -0.258826 0.965924 0
    outer loop
      vertex 6.09071 2.78418 2
      vertex 6.46954 2.88569 0
      vertex 6.09071 2.78418 0
    endloop
  endfacet
  facet normal -0.573584 0.819147 0
    outer loop
      vertex 7.14627 3.2764 0
      vertex 6.825 3.05144 2
      vertex 7.14627 3.2764 2
    endloop
  endfacet
  facet normal -0.573584 0.819147 0
    outer loop
      vertex 6.825 3.05144 2
      vertex 7.14627 3.2764 0
      vertex 6.825 3.05144 0
    endloop
  endfacet
  facet normal -0.819147 0.573584 0
    outer loop
      vertex 7.4236 3.55373 0
      vertex 7.64856 3.875 2
      vertex 7.64856 3.875 0
    endloop
  endfacet
  facet normal -0.819147 0.573584 0
    outer loop
      vertex 7.64856 3.875 2
      vertex 7.4236 3.55373 0
      vertex 7.4236 3.55373 2
    endloop
  endfacet
  facet normal 0.573584 0.819147 -0
    outer loop
      vertex 4.575 3.05144 0
      vertex 4.25373 3.2764 2
      vertex 4.575 3.05144 2
    endloop
  endfacet
  facet normal 0.573584 0.819147 0
    outer loop
      vertex 4.25373 3.2764 2
      vertex 4.575 3.05144 0
      vertex 4.25373 3.2764 0
    endloop
  endfacet
  facet normal 0.258819 0.965926 -0
    outer loop
      vertex 5.30929 2.78418 0
      vertex 4.93045 2.88569 2
      vertex 5.30929 2.78418 2
    endloop
  endfacet
  facet normal 0.258819 0.965926 0
    outer loop
      vertex 4.93045 2.88569 2
      vertex 5.30929 2.78418 0
      vertex 4.93045 2.88569 0
    endloop
  endfacet
  facet normal 0.965926 0.258819 0
    outer loop
      vertex 3.58569 4.23045 2
      vertex 3.48418 4.60929 0
      vertex 3.48418 4.60929 2
    endloop
  endfacet
  facet normal 0.965926 0.258819 0
    outer loop
      vertex 3.48418 4.60929 0
      vertex 3.58569 4.23045 2
      vertex 3.58569 4.23045 0
    endloop
  endfacet
  facet normal 0.819147 0.573584 0
    outer loop
      vertex 3.9764 3.55373 2
      vertex 3.75144 3.875 0
      vertex 3.75144 3.875 2
    endloop
  endfacet
  facet normal 0.819147 0.573584 0
    outer loop
      vertex 3.75144 3.875 0
      vertex 3.9764 3.55373 2
      vertex 3.9764 3.55373 0
    endloop
  endfacet
  facet normal 0.996195 0.0871489 0
    outer loop
      vertex 3.48418 4.60929 2
      vertex 3.45 5 0
      vertex 3.45 5 2
    endloop
  endfacet
  facet normal 0.996195 0.0871489 0
    outer loop
      vertex 3.45 5 0
      vertex 3.48418 4.60929 2
      vertex 3.48418 4.60929 0
    endloop
  endfacet
  facet normal 0.707107 -0.707107 0
    outer loop
      vertex 3.9764 6.44627 2
      vertex 4.25373 6.7236 0
      vertex 4.25373 6.7236 2
    endloop
  endfacet
  facet normal 0.707107 -0.707107 0
    outer loop
      vertex 4.25373 6.7236 0
      vertex 3.9764 6.44627 2
      vertex 3.9764 6.44627 0
    endloop
  endfacet
  facet normal -0.42261 0.906311 0
    outer loop
      vertex 6.825 3.05144 0
      vertex 6.46954 2.88569 2
      vertex 6.825 3.05144 2
    endloop
  endfacet
  facet normal -0.42261 0.906311 0
    outer loop
      vertex 6.46954 2.88569 2
      vertex 6.825 3.05144 0
      vertex 6.46954 2.88569 0
    endloop
  endfacet
  facet normal -0.707107 0.707107 0
    outer loop
      vertex 7.14627 3.2764 0
      vertex 7.4236 3.55373 2
      vertex 7.4236 3.55373 0
    endloop
  endfacet
  facet normal -0.707107 0.707107 0
    outer loop
      vertex 7.4236 3.55373 2
      vertex 7.14627 3.2764 0
      vertex 7.14627 3.2764 2
    endloop
  endfacet
  facet normal -0.965926 0.258819 0
    outer loop
      vertex 7.81431 4.23045 0
      vertex 7.91582 4.60929 2
      vertex 7.91582 4.60929 0
    endloop
  endfacet
  facet normal -0.965926 0.258819 0
    outer loop
      vertex 7.91582 4.60929 2
      vertex 7.81431 4.23045 0
      vertex 7.81431 4.23045 2
    endloop
  endfacet
  facet normal -0.906307 0.42262 0
    outer loop
      vertex 7.64856 3.875 0
      vertex 7.81431 4.23045 2
      vertex 7.81431 4.23045 0
    endloop
  endfacet
  facet normal -0.906307 0.42262 0
    outer loop
      vertex 7.81431 4.23045 2
      vertex 7.64856 3.875 0
      vertex 7.64856 3.875 2
    endloop
  endfacet
  facet normal 0.42262 0.906307 -0
    outer loop
      vertex 4.93045 2.88569 0
      vertex 4.575 3.05144 2
      vertex 4.93045 2.88569 2
    endloop
  endfacet
  facet normal 0.42262 0.906307 0
    outer loop
      vertex 4.575 3.05144 2
      vertex 4.93045 2.88569 0
      vertex 4.575 3.05144 0
    endloop
  endfacet
  facet normal -0.0871489 0.996195 0
    outer loop
      vertex 6.09071 2.78418 0
      vertex 5.7 2.75 2
      vertex 6.09071 2.78418 2
    endloop
  endfacet
  facet normal -0.0871489 0.996195 0
    outer loop
      vertex 5.7 2.75 2
      vertex 6.09071 2.78418 0
      vertex 5.7 2.75 0
    endloop
  endfacet
  facet normal 0.906307 0.42262 0
    outer loop
      vertex 3.75144 3.875 2
      vertex 3.58569 4.23045 0
      vertex 3.58569 4.23045 2
    endloop
  endfacet
  facet normal 0.906307 0.42262 0
    outer loop
      vertex 3.58569 4.23045 0
      vertex 3.75144 3.875 2
      vertex 3.75144 3.875 0
    endloop
  endfacet
  facet normal -0.707107 -0.707107 0
    outer loop
      vertex 7.4236 6.44627 0
      vertex 7.14627 6.7236 2
      vertex 7.14627 6.7236 0
    endloop
  endfacet
  facet normal -0.707107 -0.707107 0
    outer loop
      vertex 7.14627 6.7236 2
      vertex 7.4236 6.44627 0
      vertex 7.4236 6.44627 2
    endloop
  endfacet
  facet normal -0.996195 0.0871489 0
    outer loop
      vertex 7.91582 4.60929 0
      vertex 7.95 5 2
      vertex 7.95 5 0
    endloop
  endfacet
  facet normal -0.996195 0.0871489 0
    outer loop
      vertex 7.95 5 2
      vertex 7.91582 4.60929 0
      vertex 7.91582 4.60929 2
    endloop
  endfacet
  facet normal 0.0871489 0.996195 -0
    outer loop
      vertex 5.7 2.75 0
      vertex 5.30929 2.78418 2
      vertex 5.7 2.75 2
    endloop
  endfacet
  facet normal 0.0871489 0.996195 0
    outer loop
      vertex 5.30929 2.78418 2
      vertex 5.7 2.75 0
      vertex 5.30929 2.78418 0
    endloop
  endfacet
  facet normal 1 -0 0
    outer loop
      vertex 2 0 0
      vertex 2 10 -13
      vertex 2 10 0
    endloop
  endfacet
  facet normal 1 0 0
    outer loop
      vertex 2 10 -13
      vertex 2 0 0
      vertex 2 0 -13
    endloop
  endfacet
  facet normal 0 0 -1
    outer loop
      vertex 0 0 -13
      vertex 2 10 -13
      vertex 2 0 -13
    endloop
  endfacet
  facet normal -0 0 -1
    outer loop
      vertex 2 10 -13
      vertex 0 0 -13
      vertex 0 10 -13
    endloop
  endfacet
endsolid OpenSCAD_Model
