solid OpenSCAD_Model
  facet normal 1 -0 0
    outer loop
      vertex 21.732 54.5 2
      vertex 21.732 56.5 -2
      vertex 21.732 56.5 2
    endloop
  endfacet
  facet normal 1 0 0
    outer loop
      vertex 21.732 56.5 -2
      vertex 21.732 54.5 2
      vertex 21.732 54.5 -2
    endloop
  endfacet
  facet normal 0 0 1
    outer loop
      vertex 21.732 56.5 2
      vertex 20 54.5 2
      vertex 21.732 54.5 2
    endloop
  endfacet
  facet normal 0 -1 0
    outer loop
      vertex 20 54.5 -2
      vertex 21.732 54.5 2
      vertex 20 54.5 2
    endloop
  endfacet
  facet normal 0 -1 -0
    outer loop
      vertex 21.732 54.5 2
      vertex 20 54.5 -2
      vertex 21.732 54.5 -2
    endloop
  endfacet
  facet normal 0 0 -1
    outer loop
      vertex 21.732 54.5 -2
      vertex 20 54.5 -2
      vertex 21.732 56.5 -2
    endloop
  endfacet
  facet normal -0.755938 0.654643 0
    outer loop
      vertex 20 54.5 -2
      vertex 21.732 56.5 2
      vertex 21.732 56.5 -2
    endloop
  endfacet
  facet normal -0.755938 0.654643 0
    outer loop
      vertex 21.732 56.5 2
      vertex 20 54.5 -2
      vertex 20 54.5 2
    endloop
  endfacet
  facet normal -1 0 0
    outer loop
      vertex 23.316 54.5 -2
      vertex 23.316 56.5 2
      vertex 23.316 56.5 -2
    endloop
  endfacet
  facet normal -1 -0 0
    outer loop
      vertex 23.316 56.5 2
      vertex 23.316 54.5 -2
      vertex 23.316 54.5 2
    endloop
  endfacet
  facet normal 0 -1 0
    outer loop
      vertex 23.316 54.5 -2
      vertex 24 54.5 2
      vertex 23.316 54.5 2
    endloop
  endfacet
  facet normal 0 -1 -0
    outer loop
      vertex 24 54.5 2
      vertex 23.316 54.5 -2
      vertex 24 54.5 -2
    endloop
  endfacet
  facet normal 0 0 -1
    outer loop
      vertex 23.316 56.5 -2
      vertex 24 54.5 -2
      vertex 23.316 54.5 -2
    endloop
  endfacet
  facet normal 0 0 1
    outer loop
      vertex 24 54.5 2
      vertex 23.316 56.5 2
      vertex 23.316 54.5 2
    endloop
  endfacet
  facet normal 0.946194 0.323599 0
    outer loop
      vertex 24 54.5 2
      vertex 23.316 56.5 -2
      vertex 23.316 56.5 2
    endloop
  endfacet
  facet normal 0.946194 0.323599 0
    outer loop
      vertex 23.316 56.5 -2
      vertex 24 54.5 2
      vertex 24 54.5 -2
    endloop
  endfacet
  facet normal 1 -0 0
    outer loop
      vertex 23.316 54.5 2
      vertex 23.316 56.5 -2
      vertex 23.316 56.5 2
    endloop
  endfacet
  facet normal 1 0 0
    outer loop
      vertex 23.316 56.5 -2
      vertex 23.316 54.5 2
      vertex 23.316 54.5 -2
    endloop
  endfacet
  facet normal 0 1 -0
    outer loop
      vertex 23.316 56.5 -2
      vertex 21.7321 56.5 2
      vertex 23.316 56.5 2
    endloop
  endfacet
  facet normal 0 1 0
    outer loop
      vertex 21.7321 56.5 2
      vertex 23.316 56.5 -2
      vertex 21.7321 56.5 -2
    endloop
  endfacet
  facet normal -1 0 0
    outer loop
      vertex 21.7321 54.5 -2
      vertex 21.7321 56.5 2
      vertex 21.7321 56.5 -2
    endloop
  endfacet
  facet normal -1 -0 0
    outer loop
      vertex 21.7321 56.5 2
      vertex 21.7321 54.5 -2
      vertex 21.7321 54.5 2
    endloop
  endfacet
  facet normal 0 0 1
    outer loop
      vertex 23.316 56.5 2
      vertex 21.7321 56.5 2
      vertex 23.316 54.5 2
    endloop
  endfacet
  facet normal 0 0 1
    outer loop
      vertex 78.268 56.5 2
      vertex 76.684 56.5 2
      vertex 78.268 54.5 2
    endloop
  endfacet
  facet normal -0 0 1
    outer loop
      vertex 78.268 54.5 2
      vertex 80 52.5 2
      vertex 80 54.5 2
    endloop
  endfacet
  facet normal 0 0 1
    outer loop
      vertex 76.684 54.5 2
      vertex 78.268 54.5 2
      vertex 76.684 56.5 2
    endloop
  endfacet
  facet normal -0 0 1
    outer loop
      vertex 76.684 54.5 2
      vertex 80 52.5 2
      vertex 78.268 54.5 2
    endloop
  endfacet
  facet normal 0 0 1
    outer loop
      vertex 76.684 54.5 2
      vertex 52 50.6333 2
      vertex 80 52.5 2
    endloop
  endfacet
  facet normal 0 0 1
    outer loop
      vertex 52 50.6333 2
      vertex 48 50.6333 2
      vertex 52 49.3667 2
    endloop
  endfacet
  facet normal 0 0 1
    outer loop
      vertex 76.684 54.5 2
      vertex 48 50.6333 2
      vertex 52 50.6333 2
    endloop
  endfacet
  facet normal -0 0 1
    outer loop
      vertex 23.316 54.5 2
      vertex 48 50.6333 2
      vertex 76.684 54.5 2
    endloop
  endfacet
  facet normal 0 0 1
    outer loop
      vertex 21.7321 54.5 2
      vertex 23.316 54.5 2
      vertex 21.7321 56.5 2
    endloop
  endfacet
  facet normal 0 0 1
    outer loop
      vertex 20 52.5 2
      vertex 23.316 54.5 2
      vertex 21.7321 54.5 2
    endloop
  endfacet
  facet normal 0 0 1
    outer loop
      vertex 20 52.5 2
      vertex 21.7321 54.5 2
      vertex 20 54.5 2
    endloop
  endfacet
  facet normal 0 0 1
    outer loop
      vertex 23.316 54.5 2
      vertex 20 52.5 2
      vertex 48 50.6333 2
    endloop
  endfacet
  facet normal 0 0 1
    outer loop
      vertex 80 47.5 2
      vertex 78.268 45.5 2
      vertex 80 45.5 2
    endloop
  endfacet
  facet normal 0 0 1
    outer loop
      vertex 78.268 45.5 2
      vertex 76.684 45.5 2
      vertex 78.268 43.5 2
    endloop
  endfacet
  facet normal 0 0 1
    outer loop
      vertex 80 47.5 2
      vertex 76.684 45.5 2
      vertex 78.268 45.5 2
    endloop
  endfacet
  facet normal 0 0 1
    outer loop
      vertex 52 49.3667 2
      vertex 76.684 45.5 2
      vertex 80 47.5 2
    endloop
  endfacet
  facet normal 0 0 1
    outer loop
      vertex 48 49.3667 2
      vertex 52 49.3667 2
      vertex 48 50.6333 2
    endloop
  endfacet
  facet normal -0 0 1
    outer loop
      vertex 48 49.3667 2
      vertex 76.684 45.5 2
      vertex 52 49.3667 2
    endloop
  endfacet
  facet normal 0 0 1
    outer loop
      vertex 48 49.3667 2
      vertex 23.316 45.5 2
      vertex 76.684 45.5 2
    endloop
  endfacet
  facet normal 0 0 1
    outer loop
      vertex 23.316 45.5 2
      vertex 21.7321 45.5 2
      vertex 23.316 43.5 2
    endloop
  endfacet
  facet normal -0 0 1
    outer loop
      vertex 20 47.5 2
      vertex 23.316 45.5 2
      vertex 48 49.3667 2
    endloop
  endfacet
  facet normal 0 0 1
    outer loop
      vertex 23.316 45.5 2
      vertex 20 47.5 2
      vertex 21.7321 45.5 2
    endloop
  endfacet
  facet normal 0 0 1
    outer loop
      vertex 21.7321 45.5 2
      vertex 20 47.5 2
      vertex 20 45.5 2
    endloop
  endfacet
  facet normal 0 0 1
    outer loop
      vertex 78.268 43.5 2
      vertex 76.684 45.5 2
      vertex 76.684 43.5 2
    endloop
  endfacet
  facet normal 0 0 1
    outer loop
      vertex 23.316 43.5 2
      vertex 21.7321 45.5 2
      vertex 21.7321 43.5 2
    endloop
  endfacet
  facet normal 0 1 -0
    outer loop
      vertex 21.7321 54.5 -2
      vertex 20 54.5 2
      vertex 21.7321 54.5 2
    endloop
  endfacet
  facet normal 0 1 0
    outer loop
      vertex 20 54.5 2
      vertex 21.7321 54.5 -2
      vertex 20 54.5 -2
    endloop
  endfacet
  facet normal 0 1 -0
    outer loop
      vertex 76.684 54.5 -2
      vertex 23.316 54.5 2
      vertex 76.684 54.5 2
    endloop
  endfacet
  facet normal 0 1 0
    outer loop
      vertex 23.316 54.5 2
      vertex 76.684 54.5 -2
      vertex 23.316 54.5 -2
    endloop
  endfacet
  facet normal 0 0 -1
    outer loop
      vertex 23.316 43.5 -2
      vertex 21.7321 43.5 -2
      vertex 23.316 45.5 -2
    endloop
  endfacet
  facet normal 0 0 -1
    outer loop
      vertex 78.268 43.5 -2
      vertex 76.684 43.5 -2
      vertex 78.268 45.5 -2
    endloop
  endfacet
  facet normal 0 0 -1
    outer loop
      vertex 78.268 45.5 -2
      vertex 80 47.5 -2
      vertex 80 45.5 -2
    endloop
  endfacet
  facet normal 0 0 -1
    outer loop
      vertex 76.684 45.5 -2
      vertex 78.268 45.5 -2
      vertex 76.684 43.5 -2
    endloop
  endfacet
  facet normal 0 0 -1
    outer loop
      vertex 76.684 45.5 -2
      vertex 80 47.5 -2
      vertex 78.268 45.5 -2
    endloop
  endfacet
  facet normal 0 0 -1
    outer loop
      vertex 76.684 45.5 -2
      vertex 52 49.3667 -2
      vertex 80 47.5 -2
    endloop
  endfacet
  facet normal 0 0 -1
    outer loop
      vertex 52 49.3667 -2
      vertex 48 49.3667 -2
      vertex 52 50.6333 -2
    endloop
  endfacet
  facet normal 0 0 -1
    outer loop
      vertex 76.684 45.5 -2
      vertex 48 49.3667 -2
      vertex 52 49.3667 -2
    endloop
  endfacet
  facet normal 0 0 -1
    outer loop
      vertex 23.316 45.5 -2
      vertex 48 49.3667 -2
      vertex 76.684 45.5 -2
    endloop
  endfacet
  facet normal 0 0 -1
    outer loop
      vertex 21.7321 45.5 -2
      vertex 23.316 45.5 -2
      vertex 21.7321 43.5 -2
    endloop
  endfacet
  facet normal 0 0 -1
    outer loop
      vertex 20 47.5 -2
      vertex 23.316 45.5 -2
      vertex 21.7321 45.5 -2
    endloop
  endfacet
  facet normal 0 0 -1
    outer loop
      vertex 20 47.5 -2
      vertex 21.7321 45.5 -2
      vertex 20 45.5 -2
    endloop
  endfacet
  facet normal 0 0 -1
    outer loop
      vertex 23.316 45.5 -2
      vertex 20 47.5 -2
      vertex 48 49.3667 -2
    endloop
  endfacet
  facet normal 0 0 -1
    outer loop
      vertex 80 52.5 -2
      vertex 78.268 54.5 -2
      vertex 80 54.5 -2
    endloop
  endfacet
  facet normal 0 0 -1
    outer loop
      vertex 78.268 54.5 -2
      vertex 76.684 54.5 -2
      vertex 78.268 56.5 -2
    endloop
  endfacet
  facet normal 0 0 -1
    outer loop
      vertex 80 52.5 -2
      vertex 76.684 54.5 -2
      vertex 78.268 54.5 -2
    endloop
  endfacet
  facet normal 0 0 -1
    outer loop
      vertex 52 50.6333 -2
      vertex 76.684 54.5 -2
      vertex 80 52.5 -2
    endloop
  endfacet
  facet normal 0 0 -1
    outer loop
      vertex 48 50.6333 -2
      vertex 52 50.6333 -2
      vertex 48 49.3667 -2
    endloop
  endfacet
  facet normal 0 0 -1
    outer loop
      vertex 48 50.6333 -2
      vertex 76.684 54.5 -2
      vertex 52 50.6333 -2
    endloop
  endfacet
  facet normal 0 0 -1
    outer loop
      vertex 48 50.6333 -2
      vertex 23.316 54.5 -2
      vertex 76.684 54.5 -2
    endloop
  endfacet
  facet normal 0 0 -1
    outer loop
      vertex 23.316 54.5 -2
      vertex 21.7321 54.5 -2
      vertex 23.316 56.5 -2
    endloop
  endfacet
  facet normal 0 0 -1
    outer loop
      vertex 20 52.5 -2
      vertex 23.316 54.5 -2
      vertex 48 50.6333 -2
    endloop
  endfacet
  facet normal -0 0 -1
    outer loop
      vertex 23.316 54.5 -2
      vertex 20 52.5 -2
      vertex 21.7321 54.5 -2
    endloop
  endfacet
  facet normal -0 0 -1
    outer loop
      vertex 21.7321 54.5 -2
      vertex 20 52.5 -2
      vertex 20 54.5 -2
    endloop
  endfacet
  facet normal -0 0 -1
    outer loop
      vertex 78.268 56.5 -2
      vertex 76.684 54.5 -2
      vertex 76.684 56.5 -2
    endloop
  endfacet
  facet normal -0 0 -1
    outer loop
      vertex 23.316 56.5 -2
      vertex 21.7321 54.5 -2
      vertex 21.7321 56.5 -2
    endloop
  endfacet
  facet normal -1 0 0
    outer loop
      vertex 20 52.5 -2
      vertex 20 54.5 2
      vertex 20 54.5 -2
    endloop
  endfacet
  facet normal -1 -0 0
    outer loop
      vertex 20 54.5 2
      vertex 20 52.5 -2
      vertex 20 52.5 2
    endloop
  endfacet
  facet normal -0.0665202 -0.997785 0
    outer loop
      vertex 20 52.5 -2
      vertex 48 50.6333 2
      vertex 20 52.5 2
    endloop
  endfacet
  facet normal -0.0665202 -0.997785 -0
    outer loop
      vertex 48 50.6333 2
      vertex 20 52.5 -2
      vertex 48 50.6333 -2
    endloop
  endfacet
  facet normal 1 -0 0
    outer loop
      vertex 21.732 43.5 2
      vertex 21.732 45.5 -2
      vertex 21.732 45.5 2
    endloop
  endfacet
  facet normal 1 0 0
    outer loop
      vertex 21.732 45.5 -2
      vertex 21.732 43.5 2
      vertex 21.732 43.5 -2
    endloop
  endfacet
  facet normal 0 -0 1
    outer loop
      vertex 21.732 43.5 2
      vertex 21.732 45.5 2
      vertex 20 45.5 2
    endloop
  endfacet
  facet normal 0 1 -0
    outer loop
      vertex 21.732 45.5 -2
      vertex 20 45.5 2
      vertex 21.732 45.5 2
    endloop
  endfacet
  facet normal 0 1 0
    outer loop
      vertex 20 45.5 2
      vertex 21.732 45.5 -2
      vertex 20 45.5 -2
    endloop
  endfacet
  facet normal -0 -0 -1
    outer loop
      vertex 21.732 45.5 -2
      vertex 21.732 43.5 -2
      vertex 20 45.5 -2
    endloop
  endfacet
  facet normal -0.755938 -0.654643 0
    outer loop
      vertex 21.732 43.5 -2
      vertex 20 45.5 2
      vertex 20 45.5 -2
    endloop
  endfacet
  facet normal -0.755938 -0.654643 0
    outer loop
      vertex 20 45.5 2
      vertex 21.732 43.5 -2
      vertex 21.732 43.5 2
    endloop
  endfacet
  facet normal -1 0 0
    outer loop
      vertex 23.316 43.5 -2
      vertex 23.316 45.5 2
      vertex 23.316 45.5 -2
    endloop
  endfacet
  facet normal -1 -0 0
    outer loop
      vertex 23.316 45.5 2
      vertex 23.316 43.5 -2
      vertex 23.316 43.5 2
    endloop
  endfacet
  facet normal 0 1 -0
    outer loop
      vertex 24 45.5 -2
      vertex 23.316 45.5 2
      vertex 24 45.5 2
    endloop
  endfacet
  facet normal 0 1 0
    outer loop
      vertex 23.316 45.5 2
      vertex 24 45.5 -2
      vertex 23.316 45.5 -2
    endloop
  endfacet
  facet normal 0 0 -1
    outer loop
      vertex 23.316 43.5 -2
      vertex 23.316 45.5 -2
      vertex 24 45.5 -2
    endloop
  endfacet
  facet normal 0 0 1
    outer loop
      vertex 24 45.5 2
      vertex 23.316 45.5 2
      vertex 23.316 43.5 2
    endloop
  endfacet
  facet normal 0.946194 -0.323599 0
    outer loop
      vertex 23.316 43.5 2
      vertex 24 45.5 -2
      vertex 24 45.5 2
    endloop
  endfacet
  facet normal 0.946194 -0.323599 0
    outer loop
      vertex 24 45.5 -2
      vertex 23.316 43.5 2
      vertex 23.316 43.5 -2
    endloop
  endfacet
  facet normal 1 -0 0
    outer loop
      vertex 23.316 43.5 2
      vertex 23.316 45.5 -2
      vertex 23.316 45.5 2
    endloop
  endfacet
  facet normal 1 0 0
    outer loop
      vertex 23.316 45.5 -2
      vertex 23.316 43.5 2
      vertex 23.316 43.5 -2
    endloop
  endfacet
  facet normal 0 -1 0
    outer loop
      vertex 21.7321 43.5 -2
      vertex 23.316 43.5 2
      vertex 21.7321 43.5 2
    endloop
  endfacet
  facet normal 0 -1 -0
    outer loop
      vertex 23.316 43.5 2
      vertex 21.7321 43.5 -2
      vertex 23.316 43.5 -2
    endloop
  endfacet
  facet normal -1 0 0
    outer loop
      vertex 21.7321 43.5 -2
      vertex 21.7321 45.5 2
      vertex 21.7321 45.5 -2
    endloop
  endfacet
  facet normal -1 -0 0
    outer loop
      vertex 21.7321 45.5 2
      vertex 21.7321 43.5 -2
      vertex 21.7321 43.5 2
    endloop
  endfacet
  facet normal 0 -1 0
    outer loop
      vertex 20 45.5 -2
      vertex 21.7321 45.5 2
      vertex 20 45.5 2
    endloop
  endfacet
  facet normal 0 -1 -0
    outer loop
      vertex 21.7321 45.5 2
      vertex 20 45.5 -2
      vertex 21.7321 45.5 -2
    endloop
  endfacet
  facet normal 0 -1 0
    outer loop
      vertex 23.316 45.5 -2
      vertex 76.684 45.5 2
      vertex 23.316 45.5 2
    endloop
  endfacet
  facet normal 0 -1 -0
    outer loop
      vertex 76.684 45.5 2
      vertex 23.316 45.5 -2
      vertex 76.684 45.5 -2
    endloop
  endfacet
  facet normal -1 0 0
    outer loop
      vertex 20 45.5 -2
      vertex 20 47.5 2
      vertex 20 47.5 -2
    endloop
  endfacet
  facet normal -1 -0 0
    outer loop
      vertex 20 47.5 2
      vertex 20 45.5 -2
      vertex 20 45.5 2
    endloop
  endfacet
  facet normal -0.0665202 0.997785 0
    outer loop
      vertex 48 49.3667 -2
      vertex 20 47.5 2
      vertex 48 49.3667 2
    endloop
  endfacet
  facet normal -0.0665202 0.997785 0
    outer loop
      vertex 20 47.5 2
      vertex 48 49.3667 -2
      vertex 20 47.5 -2
    endloop
  endfacet
  facet normal -1 0 0
    outer loop
      vertex 78.268 54.5 -2
      vertex 78.268 56.5 2
      vertex 78.268 56.5 -2
    endloop
  endfacet
  facet normal -1 -0 0
    outer loop
      vertex 78.268 56.5 2
      vertex 78.268 54.5 -2
      vertex 78.268 54.5 2
    endloop
  endfacet
  facet normal 0 0 1
    outer loop
      vertex 80 54.5 2
      vertex 78.268 56.5 2
      vertex 78.268 54.5 2
    endloop
  endfacet
  facet normal 0 -1 0
    outer loop
      vertex 78.268 54.5 -2
      vertex 80 54.5 2
      vertex 78.268 54.5 2
    endloop
  endfacet
  facet normal 0 -1 -0
    outer loop
      vertex 80 54.5 2
      vertex 78.268 54.5 -2
      vertex 80 54.5 -2
    endloop
  endfacet
  facet normal 0 0 -1
    outer loop
      vertex 78.268 56.5 -2
      vertex 80 54.5 -2
      vertex 78.268 54.5 -2
    endloop
  endfacet
  facet normal 0.755938 0.654643 0
    outer loop
      vertex 80 54.5 2
      vertex 78.268 56.5 -2
      vertex 78.268 56.5 2
    endloop
  endfacet
  facet normal 0.755938 0.654643 0
    outer loop
      vertex 78.268 56.5 -2
      vertex 80 54.5 2
      vertex 80 54.5 -2
    endloop
  endfacet
  facet normal 1 -0 0
    outer loop
      vertex 76.684 54.5 2
      vertex 76.684 56.5 -2
      vertex 76.684 56.5 2
    endloop
  endfacet
  facet normal 1 0 0
    outer loop
      vertex 76.684 56.5 -2
      vertex 76.684 54.5 2
      vertex 76.684 54.5 -2
    endloop
  endfacet
  facet normal 0 -1 0
    outer loop
      vertex 76 54.5 -2
      vertex 76.684 54.5 2
      vertex 76 54.5 2
    endloop
  endfacet
  facet normal 0 -1 -0
    outer loop
      vertex 76.684 54.5 2
      vertex 76 54.5 -2
      vertex 76.684 54.5 -2
    endloop
  endfacet
  facet normal 0 0 -1
    outer loop
      vertex 76.684 54.5 -2
      vertex 76 54.5 -2
      vertex 76.684 56.5 -2
    endloop
  endfacet
  facet normal 0 0 1
    outer loop
      vertex 76.684 56.5 2
      vertex 76 54.5 2
      vertex 76.684 54.5 2
    endloop
  endfacet
  facet normal -0.946194 0.323599 0
    outer loop
      vertex 76 54.5 -2
      vertex 76.684 56.5 2
      vertex 76.684 56.5 -2
    endloop
  endfacet
  facet normal -0.946194 0.323599 0
    outer loop
      vertex 76.684 56.5 2
      vertex 76 54.5 -2
      vertex 76 54.5 2
    endloop
  endfacet
  facet normal -1 0 0
    outer loop
      vertex 76.684 54.5 -2
      vertex 76.684 56.5 2
      vertex 76.684 56.5 -2
    endloop
  endfacet
  facet normal -1 -0 0
    outer loop
      vertex 76.684 56.5 2
      vertex 76.684 54.5 -2
      vertex 76.684 54.5 2
    endloop
  endfacet
  facet normal 0 1 -0
    outer loop
      vertex 78.268 56.5 -2
      vertex 76.684 56.5 2
      vertex 78.268 56.5 2
    endloop
  endfacet
  facet normal 0 1 0
    outer loop
      vertex 76.684 56.5 2
      vertex 78.268 56.5 -2
      vertex 76.684 56.5 -2
    endloop
  endfacet
  facet normal 1 -0 0
    outer loop
      vertex 78.268 54.5 2
      vertex 78.268 56.5 -2
      vertex 78.268 56.5 2
    endloop
  endfacet
  facet normal 1 0 0
    outer loop
      vertex 78.268 56.5 -2
      vertex 78.268 54.5 2
      vertex 78.268 54.5 -2
    endloop
  endfacet
  facet normal 0 1 -0
    outer loop
      vertex 80 54.5 -2
      vertex 78.268 54.5 2
      vertex 80 54.5 2
    endloop
  endfacet
  facet normal 0 1 0
    outer loop
      vertex 78.268 54.5 2
      vertex 80 54.5 -2
      vertex 78.268 54.5 -2
    endloop
  endfacet
  facet normal 1 -0 0
    outer loop
      vertex 80 52.5 2
      vertex 80 54.5 -2
      vertex 80 54.5 2
    endloop
  endfacet
  facet normal 1 0 0
    outer loop
      vertex 80 54.5 -2
      vertex 80 52.5 2
      vertex 80 52.5 -2
    endloop
  endfacet
  facet normal 0.0665202 -0.997785 0
    outer loop
      vertex 52 50.6333 -2
      vertex 80 52.5 2
      vertex 52 50.6333 2
    endloop
  endfacet
  facet normal 0.0665202 -0.997785 0
    outer loop
      vertex 80 52.5 2
      vertex 52 50.6333 -2
      vertex 80 52.5 -2
    endloop
  endfacet
  facet normal -1 0 0
    outer loop
      vertex 78.268 43.5 -2
      vertex 78.268 45.5 2
      vertex 78.268 45.5 -2
    endloop
  endfacet
  facet normal -1 -0 0
    outer loop
      vertex 78.268 45.5 2
      vertex 78.268 43.5 -2
      vertex 78.268 43.5 2
    endloop
  endfacet
  facet normal 0 0 1
    outer loop
      vertex 80 45.5 2
      vertex 78.268 45.5 2
      vertex 78.268 43.5 2
    endloop
  endfacet
  facet normal 0 1 -0
    outer loop
      vertex 80 45.5 -2
      vertex 78.268 45.5 2
      vertex 80 45.5 2
    endloop
  endfacet
  facet normal 0 1 0
    outer loop
      vertex 78.268 45.5 2
      vertex 80 45.5 -2
      vertex 78.268 45.5 -2
    endloop
  endfacet
  facet normal 0 0 -1
    outer loop
      vertex 78.268 43.5 -2
      vertex 78.268 45.5 -2
      vertex 80 45.5 -2
    endloop
  endfacet
  facet normal 0.755938 -0.654643 0
    outer loop
      vertex 78.268 43.5 2
      vertex 80 45.5 -2
      vertex 80 45.5 2
    endloop
  endfacet
  facet normal 0.755938 -0.654643 0
    outer loop
      vertex 80 45.5 -2
      vertex 78.268 43.5 2
      vertex 78.268 43.5 -2
    endloop
  endfacet
  facet normal 1 -0 0
    outer loop
      vertex 76.684 43.5 2
      vertex 76.684 45.5 -2
      vertex 76.684 45.5 2
    endloop
  endfacet
  facet normal 1 0 0
    outer loop
      vertex 76.684 45.5 -2
      vertex 76.684 43.5 2
      vertex 76.684 43.5 -2
    endloop
  endfacet
  facet normal 0 1 -0
    outer loop
      vertex 76.684 45.5 -2
      vertex 76 45.5 2
      vertex 76.684 45.5 2
    endloop
  endfacet
  facet normal 0 1 0
    outer loop
      vertex 76 45.5 2
      vertex 76.684 45.5 -2
      vertex 76 45.5 -2
    endloop
  endfacet
  facet normal -0 -0 -1
    outer loop
      vertex 76.684 45.5 -2
      vertex 76.684 43.5 -2
      vertex 76 45.5 -2
    endloop
  endfacet
  facet normal 0 -0 1
    outer loop
      vertex 76.684 43.5 2
      vertex 76.684 45.5 2
      vertex 76 45.5 2
    endloop
  endfacet
  facet normal -0.946194 -0.323599 0
    outer loop
      vertex 76.684 43.5 -2
      vertex 76 45.5 2
      vertex 76 45.5 -2
    endloop
  endfacet
  facet normal -0.946194 -0.323599 0
    outer loop
      vertex 76 45.5 2
      vertex 76.684 43.5 -2
      vertex 76.684 43.5 2
    endloop
  endfacet
  facet normal -1 0 0
    outer loop
      vertex 76.684 43.5 -2
      vertex 76.684 45.5 2
      vertex 76.684 45.5 -2
    endloop
  endfacet
  facet normal -1 -0 0
    outer loop
      vertex 76.684 45.5 2
      vertex 76.684 43.5 -2
      vertex 76.684 43.5 2
    endloop
  endfacet
  facet normal 0 -1 0
    outer loop
      vertex 76.684 43.5 -2
      vertex 78.268 43.5 2
      vertex 76.684 43.5 2
    endloop
  endfacet
  facet normal 0 -1 -0
    outer loop
      vertex 78.268 43.5 2
      vertex 76.684 43.5 -2
      vertex 78.268 43.5 -2
    endloop
  endfacet
  facet normal 1 -0 0
    outer loop
      vertex 78.268 43.5 2
      vertex 78.268 45.5 -2
      vertex 78.268 45.5 2
    endloop
  endfacet
  facet normal 1 0 0
    outer loop
      vertex 78.268 45.5 -2
      vertex 78.268 43.5 2
      vertex 78.268 43.5 -2
    endloop
  endfacet
  facet normal 0 -1 0
    outer loop
      vertex 78.268 45.5 -2
      vertex 80 45.5 2
      vertex 78.268 45.5 2
    endloop
  endfacet
  facet normal 0 -1 -0
    outer loop
      vertex 80 45.5 2
      vertex 78.268 45.5 -2
      vertex 80 45.5 -2
    endloop
  endfacet
  facet normal 1 -0 0
    outer loop
      vertex 80 45.5 2
      vertex 80 47.5 -2
      vertex 80 47.5 2
    endloop
  endfacet
  facet normal 1 0 0
    outer loop
      vertex 80 47.5 -2
      vertex 80 45.5 2
      vertex 80 45.5 -2
    endloop
  endfacet
  facet normal 0.0665202 0.997785 -0
    outer loop
      vertex 80 47.5 -2
      vertex 52 49.3667 2
      vertex 80 47.5 2
    endloop
  endfacet
  facet normal 0.0665202 0.997785 0
    outer loop
      vertex 52 49.3667 2
      vertex 80 47.5 -2
      vertex 52 49.3667 -2
    endloop
  endfacet
  facet normal -1 0 0
    outer loop
      vertex 48 49.3667 -2
      vertex 48 50.6333 2
      vertex 48 50.6333 -2
    endloop
  endfacet
  facet normal -1 -0 0
    outer loop
      vertex 48 50.6333 2
      vertex 48 49.3667 -2
      vertex 48 49.3667 2
    endloop
  endfacet
  facet normal 1 -0 0
    outer loop
      vertex 52 49.3667 2
      vertex 52 50.6333 -2
      vertex 52 50.6333 2
    endloop
  endfacet
  facet normal 1 0 0
    outer loop
      vertex 52 50.6333 -2
      vertex 52 49.3667 2
      vertex 52 49.3667 -2
    endloop
  endfacet
endsolid OpenSCAD_Model
