solid OpenSCAD_Model
  facet normal -0 0 1
    outer loop
      vertex 4.93315 -2.19638 2
      vertex 5.2 -5.2 2
      vertex 5.2 -1.37508 2
    endloop
  endfacet
  facet normal -0 0 1
    outer loop
      vertex 4.36869 -3.17404 2
      vertex 5.2 -5.2 2
      vertex 4.93315 -2.19638 2
    endloop
  endfacet
  facet normal -0 0 1
    outer loop
      vertex 3.6133 -4.01298 2
      vertex 5.2 -5.2 2
      vertex 4.36869 -3.17404 2
    endloop
  endfacet
  facet normal -0 0 1
    outer loop
      vertex 2.7 -4.67654 2
      vertex 5.2 -5.2 2
      vertex 3.6133 -4.01298 2
    endloop
  endfacet
  facet normal -0 0 1
    outer loop
      vertex 1.66869 -5.1357 2
      vertex 5.2 -5.2 2
      vertex 2.7 -4.67654 2
    endloop
  endfacet
  facet normal 0 0 1
    outer loop
      vertex 5.2 -5.2 2
      vertex 1.66869 -5.1357 2
      vertex 1.36621 -5.2 2
    endloop
  endfacet
  facet normal 0 0 1
    outer loop
      vertex -1.66869 -5.1357 2
      vertex -5.2 -5.2 2
      vertex -1.36621 -5.2 2
    endloop
  endfacet
  facet normal 0 0 1
    outer loop
      vertex -2.7 -4.67654 2
      vertex -5.2 -5.2 2
      vertex -1.66869 -5.1357 2
    endloop
  endfacet
  facet normal 0 0 1
    outer loop
      vertex -3.6133 -4.01298 2
      vertex -5.2 -5.2 2
      vertex -2.7 -4.67654 2
    endloop
  endfacet
  facet normal 0 0 1
    outer loop
      vertex -4.36869 -3.17404 2
      vertex -5.2 -5.2 2
      vertex -3.6133 -4.01298 2
    endloop
  endfacet
  facet normal 0 0 1
    outer loop
      vertex -4.93315 -2.19638 2
      vertex -5.2 -5.2 2
      vertex -4.36869 -3.17404 2
    endloop
  endfacet
  facet normal 0 0 1
    outer loop
      vertex -5.2 -5.2 2
      vertex -4.93315 -2.19638 2
      vertex -5.2 -1.37508 2
    endloop
  endfacet
  facet normal 0 0 1
    outer loop
      vertex 5.2 5.2 2
      vertex 4.93315 2.19638 2
      vertex 5.2 1.37508 2
    endloop
  endfacet
  facet normal 0 0 1
    outer loop
      vertex 5.2 5.2 2
      vertex 4.36869 3.17404 2
      vertex 4.93315 2.19638 2
    endloop
  endfacet
  facet normal 0 0 1
    outer loop
      vertex 5.2 5.2 2
      vertex 3.6133 4.01298 2
      vertex 4.36869 3.17404 2
    endloop
  endfacet
  facet normal 0 0 1
    outer loop
      vertex 5.2 5.2 2
      vertex 2.7 4.67654 2
      vertex 3.6133 4.01298 2
    endloop
  endfacet
  facet normal 0 0 1
    outer loop
      vertex 5.2 5.2 2
      vertex 1.66869 5.1357 2
      vertex 2.7 4.67654 2
    endloop
  endfacet
  facet normal 0 -0 1
    outer loop
      vertex 1.66869 5.1357 2
      vertex 5.2 5.2 2
      vertex 1.36621 5.2 2
    endloop
  endfacet
  facet normal -0 0 1
    outer loop
      vertex -5.2 5.2 2
      vertex -1.66869 5.1357 2
      vertex -1.36621 5.2 2
    endloop
  endfacet
  facet normal 0 0 1
    outer loop
      vertex -5.2 5.2 2
      vertex -2.7 4.67654 2
      vertex -1.66869 5.1357 2
    endloop
  endfacet
  facet normal 0 0 1
    outer loop
      vertex -5.2 5.2 2
      vertex -3.6133 4.01298 2
      vertex -2.7 4.67654 2
    endloop
  endfacet
  facet normal 0 0 1
    outer loop
      vertex -5.2 5.2 2
      vertex -4.36869 3.17404 2
      vertex -3.6133 4.01298 2
    endloop
  endfacet
  facet normal 0 0 1
    outer loop
      vertex -5.2 5.2 2
      vertex -4.93315 2.19638 2
      vertex -4.36869 3.17404 2
    endloop
  endfacet
  facet normal 0 0 1
    outer loop
      vertex -4.93315 2.19638 2
      vertex -5.2 5.2 2
      vertex -5.2 1.37508 2
    endloop
  endfacet
  facet normal 0 0 1
    outer loop
      vertex 2.95989 1.31783 2
      vertex 5.2 1.37508 2
      vertex 4.93315 2.19638 2
    endloop
  endfacet
  facet normal 0 0 1
    outer loop
      vertex 5.2 1.37508 2
      vertex 3.24 0 2
      vertex 5.2 -1.37508 2
    endloop
  endfacet
  facet normal 0 0 1
    outer loop
      vertex 2.95989 1.31783 2
      vertex 4.93315 2.19638 2
      vertex 4.36869 3.17404 2
    endloop
  endfacet
  facet normal -0 0 1
    outer loop
      vertex 3.1692 -0.673633 2
      vertex 5.2 -1.37508 2
      vertex 3.24 0 2
    endloop
  endfacet
  facet normal 0 0 1
    outer loop
      vertex 2.62121 1.90442 2
      vertex 4.36869 3.17404 2
      vertex 3.6133 4.01298 2
    endloop
  endfacet
  facet normal -0 0 1
    outer loop
      vertex 2.95989 -1.31783 2
      vertex 5.2 -1.37508 2
      vertex 3.1692 -0.673633 2
    endloop
  endfacet
  facet normal 0 0 1
    outer loop
      vertex 5.2 -1.37508 2
      vertex 2.95989 -1.31783 2
      vertex 4.93315 -2.19638 2
    endloop
  endfacet
  facet normal 0 0 1
    outer loop
      vertex 5.2 1.37508 2
      vertex 3.1692 0.673633 2
      vertex 3.24 0 2
    endloop
  endfacet
  facet normal 0 0 1
    outer loop
      vertex 5.2 1.37508 2
      vertex 2.95989 1.31783 2
      vertex 3.1692 0.673633 2
    endloop
  endfacet
  facet normal 0 0 1
    outer loop
      vertex 2.16798 2.40779 2
      vertex 3.6133 4.01298 2
      vertex 2.7 4.67654 2
    endloop
  endfacet
  facet normal 0 0 1
    outer loop
      vertex 4.36869 3.17404 2
      vertex 2.62121 1.90442 2
      vertex 2.95989 1.31783 2
    endloop
  endfacet
  facet normal 0 0 1
    outer loop
      vertex 3.6133 4.01298 2
      vertex 2.16798 2.40779 2
      vertex 2.62121 1.90442 2
    endloop
  endfacet
  facet normal 0 0 1
    outer loop
      vertex 1.62 2.80592 2
      vertex 2.7 4.67654 2
      vertex 1.66869 5.1357 2
    endloop
  endfacet
  facet normal 0 0 1
    outer loop
      vertex 2.7 4.67654 2
      vertex 1.62 2.80592 2
      vertex 2.16798 2.40779 2
    endloop
  endfacet
  facet normal 0 0 1
    outer loop
      vertex 1.00121 3.08142 2
      vertex 1.66869 5.1357 2
      vertex 1.36621 5.2 2
    endloop
  endfacet
  facet normal 0 0 1
    outer loop
      vertex 1.66869 5.1357 2
      vertex 1.00121 3.08142 2
      vertex 1.62 2.80592 2
    endloop
  endfacet
  facet normal 0 0 1
    outer loop
      vertex 1.36621 5.2 2
      vertex 0.338672 3.22225 2
      vertex 1.00121 3.08142 2
    endloop
  endfacet
  facet normal 0 0 1
    outer loop
      vertex 1.36621 5.2 2
      vertex -0.338672 3.22225 2
      vertex 0.338672 3.22225 2
    endloop
  endfacet
  facet normal -0 0 1
    outer loop
      vertex -1.36621 5.2 2
      vertex -0.338672 3.22225 2
      vertex 1.36621 5.2 2
    endloop
  endfacet
  facet normal 0 0 1
    outer loop
      vertex -0.338672 3.22225 2
      vertex -1.36621 5.2 2
      vertex -1.00121 3.08142 2
    endloop
  endfacet
  facet normal -0 0 1
    outer loop
      vertex -1.66869 5.1357 2
      vertex -1.00121 3.08142 2
      vertex -1.36621 5.2 2
    endloop
  endfacet
  facet normal 0 0 1
    outer loop
      vertex -1.00121 3.08142 2
      vertex -1.66869 5.1357 2
      vertex -1.62 2.80592 2
    endloop
  endfacet
  facet normal -0 0 1
    outer loop
      vertex -2.7 4.67654 2
      vertex -1.62 2.80592 2
      vertex -1.66869 5.1357 2
    endloop
  endfacet
  facet normal 0 0 1
    outer loop
      vertex -1.62 2.80592 2
      vertex -2.7 4.67654 2
      vertex -2.16798 2.40779 2
    endloop
  endfacet
  facet normal -0 0 1
    outer loop
      vertex -3.6133 4.01298 2
      vertex -2.16798 2.40779 2
      vertex -2.7 4.67654 2
    endloop
  endfacet
  facet normal 0 0 1
    outer loop
      vertex -2.16798 2.40779 2
      vertex -3.6133 4.01298 2
      vertex -2.62121 1.90442 2
    endloop
  endfacet
  facet normal -0 0 1
    outer loop
      vertex -4.36869 3.17404 2
      vertex -2.62121 1.90442 2
      vertex -3.6133 4.01298 2
    endloop
  endfacet
  facet normal -0 0 1
    outer loop
      vertex -4.93315 2.19638 2
      vertex -2.95989 1.31783 2
      vertex -4.36869 3.17404 2
    endloop
  endfacet
  facet normal 0 0 1
    outer loop
      vertex -2.62121 1.90442 2
      vertex -4.36869 3.17404 2
      vertex -2.95989 1.31783 2
    endloop
  endfacet
  facet normal 0 0 1
    outer loop
      vertex 4.93315 -2.19638 2
      vertex 2.95989 -1.31783 2
      vertex 4.36869 -3.17404 2
    endloop
  endfacet
  facet normal -0 0 1
    outer loop
      vertex 2.62121 -1.90442 2
      vertex 4.36869 -3.17404 2
      vertex 2.95989 -1.31783 2
    endloop
  endfacet
  facet normal 0 0 1
    outer loop
      vertex 4.36869 -3.17404 2
      vertex 2.62121 -1.90442 2
      vertex 3.6133 -4.01298 2
    endloop
  endfacet
  facet normal -0 0 1
    outer loop
      vertex 2.16798 -2.40779 2
      vertex 3.6133 -4.01298 2
      vertex 2.62121 -1.90442 2
    endloop
  endfacet
  facet normal 0 0 1
    outer loop
      vertex 3.6133 -4.01298 2
      vertex 2.16798 -2.40779 2
      vertex 2.7 -4.67654 2
    endloop
  endfacet
  facet normal -0 0 1
    outer loop
      vertex 1.62 -2.80592 2
      vertex 2.7 -4.67654 2
      vertex 2.16798 -2.40779 2
    endloop
  endfacet
  facet normal 0 0 1
    outer loop
      vertex 2.7 -4.67654 2
      vertex 1.62 -2.80592 2
      vertex 1.66869 -5.1357 2
    endloop
  endfacet
  facet normal -0 0 1
    outer loop
      vertex 1.00121 -3.08142 2
      vertex 1.66869 -5.1357 2
      vertex 1.62 -2.80592 2
    endloop
  endfacet
  facet normal 0 0 1
    outer loop
      vertex 1.66869 -5.1357 2
      vertex 1.00121 -3.08142 2
      vertex 1.36621 -5.2 2
    endloop
  endfacet
  facet normal -0 0 1
    outer loop
      vertex 0.338672 -3.22225 2
      vertex 1.36621 -5.2 2
      vertex 1.00121 -3.08142 2
    endloop
  endfacet
  facet normal -0 0 1
    outer loop
      vertex -0.338672 -3.22225 2
      vertex 1.36621 -5.2 2
      vertex 0.338672 -3.22225 2
    endloop
  endfacet
  facet normal 0 0 1
    outer loop
      vertex -1.36621 -5.2 2
      vertex -0.338672 -3.22225 2
      vertex -1.00121 -3.08142 2
    endloop
  endfacet
  facet normal 0 0 1
    outer loop
      vertex -0.338672 -3.22225 2
      vertex -1.36621 -5.2 2
      vertex 1.36621 -5.2 2
    endloop
  endfacet
  facet normal 0 0 1
    outer loop
      vertex -1.66869 -5.1357 2
      vertex -1.00121 -3.08142 2
      vertex -1.62 -2.80592 2
    endloop
  endfacet
  facet normal 0 0 1
    outer loop
      vertex -1.00121 -3.08142 2
      vertex -1.66869 -5.1357 2
      vertex -1.36621 -5.2 2
    endloop
  endfacet
  facet normal 0 0 1
    outer loop
      vertex -2.7 -4.67654 2
      vertex -1.62 -2.80592 2
      vertex -2.16798 -2.40779 2
    endloop
  endfacet
  facet normal 0 0 1
    outer loop
      vertex -3.6133 -4.01298 2
      vertex -2.16798 -2.40779 2
      vertex -2.62121 -1.90442 2
    endloop
  endfacet
  facet normal 0 0 1
    outer loop
      vertex -1.62 -2.80592 2
      vertex -2.7 -4.67654 2
      vertex -1.66869 -5.1357 2
    endloop
  endfacet
  facet normal 0 0 1
    outer loop
      vertex -4.36869 -3.17404 2
      vertex -2.62121 -1.90442 2
      vertex -2.95989 -1.31783 2
    endloop
  endfacet
  facet normal 0 0 1
    outer loop
      vertex -5.2 -1.37508 2
      vertex -2.95989 -1.31783 2
      vertex -3.1692 -0.673633 2
    endloop
  endfacet
  facet normal 0 0 1
    outer loop
      vertex -2.16798 -2.40779 2
      vertex -3.6133 -4.01298 2
      vertex -2.7 -4.67654 2
    endloop
  endfacet
  facet normal 0 0 1
    outer loop
      vertex -5.2 -1.37508 2
      vertex -3.1692 -0.673633 2
      vertex -3.24 0 2
    endloop
  endfacet
  facet normal -0 0 1
    outer loop
      vertex -5.2 1.37508 2
      vertex -2.95989 1.31783 2
      vertex -4.93315 2.19638 2
    endloop
  endfacet
  facet normal 0 0 1
    outer loop
      vertex -2.95989 1.31783 2
      vertex -5.2 1.37508 2
      vertex -3.1692 0.673633 2
    endloop
  endfacet
  facet normal 0 0 1
    outer loop
      vertex -5.2 -1.37508 2
      vertex -3.24 0 2
      vertex -5.2 1.37508 2
    endloop
  endfacet
  facet normal 0 0 1
    outer loop
      vertex -3.1692 0.673633 2
      vertex -5.2 1.37508 2
      vertex -3.24 0 2
    endloop
  endfacet
  facet normal 0 0 1
    outer loop
      vertex -2.95989 -1.31783 2
      vertex -5.2 -1.37508 2
      vertex -4.93315 -2.19638 2
    endloop
  endfacet
  facet normal 0 0 1
    outer loop
      vertex -2.62121 -1.90442 2
      vertex -4.36869 -3.17404 2
      vertex -3.6133 -4.01298 2
    endloop
  endfacet
  facet normal 0 0 1
    outer loop
      vertex -2.95989 -1.31783 2
      vertex -4.93315 -2.19638 2
      vertex -4.36869 -3.17404 2
    endloop
  endfacet
  facet normal -0.866018 -0.500013 0
    outer loop
      vertex 2.95989 1.31783 0
      vertex 2.62121 1.90442 2
      vertex 2.62121 1.90442 0
    endloop
  endfacet
  facet normal -0.866018 -0.500013 0
    outer loop
      vertex 2.62121 1.90442 2
      vertex 2.95989 1.31783 0
      vertex 2.95989 1.31783 2
    endloop
  endfacet
  facet normal 0.994522 -0.104526 0
    outer loop
      vertex -3.24 0 2
      vertex -3.1692 0.673633 0
      vertex -3.1692 0.673633 2
    endloop
  endfacet
  facet normal 0.994522 -0.104526 0
    outer loop
      vertex -3.1692 0.673633 0
      vertex -3.24 0 2
      vertex -3.24 0 0
    endloop
  endfacet
  facet normal -0.74315 -0.669125 0
    outer loop
      vertex 2.62121 1.90442 0
      vertex 2.16798 2.40779 2
      vertex 2.16798 2.40779 0
    endloop
  endfacet
  facet normal -0.74315 -0.669125 0
    outer loop
      vertex 2.16798 2.40779 2
      vertex 2.62121 1.90442 0
      vertex 2.62121 1.90442 2
    endloop
  endfacet
  facet normal 0.406733 -0.913547 0
    outer loop
      vertex -1.62 2.80592 0
      vertex -1.00121 3.08142 2
      vertex -1.62 2.80592 2
    endloop
  endfacet
  facet normal 0.406733 -0.913547 0
    outer loop
      vertex -1.00121 3.08142 2
      vertex -1.62 2.80592 0
      vertex -1.00121 3.08142 0
    endloop
  endfacet
  facet normal 0.951058 -0.309014 0
    outer loop
      vertex -3.1692 0.673633 2
      vertex -2.95989 1.31783 0
      vertex -2.95989 1.31783 2
    endloop
  endfacet
  facet normal 0.951058 -0.309014 0
    outer loop
      vertex -2.95989 1.31783 0
      vertex -3.1692 0.673633 2
      vertex -3.1692 0.673633 0
    endloop
  endfacet
  facet normal -0.994522 0.104526 0
    outer loop
      vertex 3.1692 -0.673633 0
      vertex 3.24 0 2
      vertex 3.24 0 0
    endloop
  endfacet
  facet normal -0.994522 0.104526 0
    outer loop
      vertex 3.24 0 2
      vertex 3.1692 -0.673633 0
      vertex 3.1692 -0.673633 2
    endloop
  endfacet
  facet normal -0.587785 -0.809018 0
    outer loop
      vertex 1.62 2.80592 0
      vertex 2.16798 2.40779 2
      vertex 1.62 2.80592 2
    endloop
  endfacet
  facet normal -0.587785 -0.809018 -0
    outer loop
      vertex 2.16798 2.40779 2
      vertex 1.62 2.80592 0
      vertex 2.16798 2.40779 0
    endloop
  endfacet
  facet normal 0 -1 0
    outer loop
      vertex -0.338672 3.22225 0
      vertex 0.338672 3.22225 2
      vertex -0.338672 3.22225 2
    endloop
  endfacet
  facet normal 0 -1 -0
    outer loop
      vertex 0.338672 3.22225 2
      vertex -0.338672 3.22225 0
      vertex 0.338672 3.22225 0
    endloop
  endfacet
  facet normal -0.406733 -0.913547 0
    outer loop
      vertex 1.00121 3.08142 0
      vertex 1.62 2.80592 2
      vertex 1.00121 3.08142 2
    endloop
  endfacet
  facet normal -0.406733 -0.913547 -0
    outer loop
      vertex 1.62 2.80592 2
      vertex 1.00121 3.08142 0
      vertex 1.62 2.80592 0
    endloop
  endfacet
  facet normal 0.866018 -0.500013 0
    outer loop
      vertex -2.95989 1.31783 2
      vertex -2.62121 1.90442 0
      vertex -2.62121 1.90442 2
    endloop
  endfacet
  facet normal 0.866018 -0.500013 0
    outer loop
      vertex -2.62121 1.90442 0
      vertex -2.95989 1.31783 2
      vertex -2.95989 1.31783 0
    endloop
  endfacet
  facet normal 0.587785 -0.809018 0
    outer loop
      vertex -2.16798 2.40779 0
      vertex -1.62 2.80592 2
      vertex -2.16798 2.40779 2
    endloop
  endfacet
  facet normal 0.587785 -0.809018 0
    outer loop
      vertex -1.62 2.80592 2
      vertex -2.16798 2.40779 0
      vertex -1.62 2.80592 0
    endloop
  endfacet
  facet normal 0.207916 -0.978147 0
    outer loop
      vertex -1.00121 3.08142 0
      vertex -0.338672 3.22225 2
      vertex -1.00121 3.08142 2
    endloop
  endfacet
  facet normal 0.207916 -0.978147 0
    outer loop
      vertex -0.338672 3.22225 2
      vertex -1.00121 3.08142 0
      vertex -0.338672 3.22225 0
    endloop
  endfacet
  facet normal 0.74315 -0.669125 0
    outer loop
      vertex -2.62121 1.90442 2
      vertex -2.16798 2.40779 0
      vertex -2.16798 2.40779 2
    endloop
  endfacet
  facet normal 0.74315 -0.669125 0
    outer loop
      vertex -2.16798 2.40779 0
      vertex -2.62121 1.90442 2
      vertex -2.62121 1.90442 0
    endloop
  endfacet
  facet normal -0.994522 -0.104526 0
    outer loop
      vertex 3.24 0 0
      vertex 3.1692 0.673633 2
      vertex 3.1692 0.673633 0
    endloop
  endfacet
  facet normal -0.994522 -0.104526 0
    outer loop
      vertex 3.1692 0.673633 2
      vertex 3.24 0 0
      vertex 3.24 0 2
    endloop
  endfacet
  facet normal 0.207916 0.978147 -0
    outer loop
      vertex -0.338672 -3.22225 0
      vertex -1.00121 -3.08142 2
      vertex -0.338672 -3.22225 2
    endloop
  endfacet
  facet normal 0.207916 0.978147 0
    outer loop
      vertex -1.00121 -3.08142 2
      vertex -0.338672 -3.22225 0
      vertex -1.00121 -3.08142 0
    endloop
  endfacet
  facet normal 0.994522 0.104526 0
    outer loop
      vertex -3.1692 -0.673633 2
      vertex -3.24 0 0
      vertex -3.24 0 2
    endloop
  endfacet
  facet normal 0.994522 0.104526 0
    outer loop
      vertex -3.24 0 0
      vertex -3.1692 -0.673633 2
      vertex -3.1692 -0.673633 0
    endloop
  endfacet
  facet normal 0.951058 0.309014 0
    outer loop
      vertex -2.95989 -1.31783 2
      vertex -3.1692 -0.673633 0
      vertex -3.1692 -0.673633 2
    endloop
  endfacet
  facet normal 0.951058 0.309014 0
    outer loop
      vertex -3.1692 -0.673633 0
      vertex -2.95989 -1.31783 2
      vertex -2.95989 -1.31783 0
    endloop
  endfacet
  facet normal -0.587785 0.809018 0
    outer loop
      vertex 2.16798 -2.40779 0
      vertex 1.62 -2.80592 2
      vertex 2.16798 -2.40779 2
    endloop
  endfacet
  facet normal -0.587785 0.809018 0
    outer loop
      vertex 1.62 -2.80592 2
      vertex 2.16798 -2.40779 0
      vertex 1.62 -2.80592 0
    endloop
  endfacet
  facet normal -0.951058 -0.309014 0
    outer loop
      vertex 3.1692 0.673633 0
      vertex 2.95989 1.31783 2
      vertex 2.95989 1.31783 0
    endloop
  endfacet
  facet normal -0.951058 -0.309014 0
    outer loop
      vertex 2.95989 1.31783 2
      vertex 3.1692 0.673633 0
      vertex 3.1692 0.673633 2
    endloop
  endfacet
  facet normal -0.207916 -0.978147 0
    outer loop
      vertex 0.338672 3.22225 0
      vertex 1.00121 3.08142 2
      vertex 0.338672 3.22225 2
    endloop
  endfacet
  facet normal -0.207916 -0.978147 -0
    outer loop
      vertex 1.00121 3.08142 2
      vertex 0.338672 3.22225 0
      vertex 1.00121 3.08142 0
    endloop
  endfacet
  facet normal -0.951058 0.309014 0
    outer loop
      vertex 2.95989 -1.31783 0
      vertex 3.1692 -0.673633 2
      vertex 3.1692 -0.673633 0
    endloop
  endfacet
  facet normal -0.951058 0.309014 0
    outer loop
      vertex 3.1692 -0.673633 2
      vertex 2.95989 -1.31783 0
      vertex 2.95989 -1.31783 2
    endloop
  endfacet
  facet normal -0.866018 0.500013 0
    outer loop
      vertex 2.62121 -1.90442 0
      vertex 2.95989 -1.31783 2
      vertex 2.95989 -1.31783 0
    endloop
  endfacet
  facet normal -0.866018 0.500013 0
    outer loop
      vertex 2.95989 -1.31783 2
      vertex 2.62121 -1.90442 0
      vertex 2.62121 -1.90442 2
    endloop
  endfacet
  facet normal -0.207916 0.978147 0
    outer loop
      vertex 1.00121 -3.08142 0
      vertex 0.338672 -3.22225 2
      vertex 1.00121 -3.08142 2
    endloop
  endfacet
  facet normal -0.207916 0.978147 0
    outer loop
      vertex 0.338672 -3.22225 2
      vertex 1.00121 -3.08142 0
      vertex 0.338672 -3.22225 0
    endloop
  endfacet
  facet normal -0.406733 0.913547 0
    outer loop
      vertex 1.62 -2.80592 0
      vertex 1.00121 -3.08142 2
      vertex 1.62 -2.80592 2
    endloop
  endfacet
  facet normal -0.406733 0.913547 0
    outer loop
      vertex 1.00121 -3.08142 2
      vertex 1.62 -2.80592 0
      vertex 1.00121 -3.08142 0
    endloop
  endfacet
  facet normal -0.74315 0.669125 0
    outer loop
      vertex 2.16798 -2.40779 0
      vertex 2.62121 -1.90442 2
      vertex 2.62121 -1.90442 0
    endloop
  endfacet
  facet normal -0.74315 0.669125 0
    outer loop
      vertex 2.62121 -1.90442 2
      vertex 2.16798 -2.40779 0
      vertex 2.16798 -2.40779 2
    endloop
  endfacet
  facet normal 0.74315 0.669125 0
    outer loop
      vertex -2.16798 -2.40779 2
      vertex -2.62121 -1.90442 0
      vertex -2.62121 -1.90442 2
    endloop
  endfacet
  facet normal 0.74315 0.669125 0
    outer loop
      vertex -2.62121 -1.90442 0
      vertex -2.16798 -2.40779 2
      vertex -2.16798 -2.40779 0
    endloop
  endfacet
  facet normal 0.866018 0.500013 0
    outer loop
      vertex -2.62121 -1.90442 2
      vertex -2.95989 -1.31783 0
      vertex -2.95989 -1.31783 2
    endloop
  endfacet
  facet normal 0.866018 0.500013 0
    outer loop
      vertex -2.95989 -1.31783 0
      vertex -2.62121 -1.90442 2
      vertex -2.62121 -1.90442 0
    endloop
  endfacet
  facet normal 0.406733 0.913547 -0
    outer loop
      vertex -1.00121 -3.08142 0
      vertex -1.62 -2.80592 2
      vertex -1.00121 -3.08142 2
    endloop
  endfacet
  facet normal 0.406733 0.913547 0
    outer loop
      vertex -1.62 -2.80592 2
      vertex -1.00121 -3.08142 0
      vertex -1.62 -2.80592 0
    endloop
  endfacet
  facet normal 0 1 -0
    outer loop
      vertex 0.338672 -3.22225 0
      vertex -0.338672 -3.22225 2
      vertex 0.338672 -3.22225 2
    endloop
  endfacet
  facet normal 0 1 0
    outer loop
      vertex -0.338672 -3.22225 2
      vertex 0.338672 -3.22225 0
      vertex -0.338672 -3.22225 0
    endloop
  endfacet
  facet normal 0.587785 0.809018 -0
    outer loop
      vertex -1.62 -2.80592 0
      vertex -2.16798 -2.40779 2
      vertex -1.62 -2.80592 2
    endloop
  endfacet
  facet normal 0.587785 0.809018 0
    outer loop
      vertex -2.16798 -2.40779 2
      vertex -1.62 -2.80592 0
      vertex -2.16798 -2.40779 0
    endloop
  endfacet
  facet normal -1 0 0
    outer loop
      vertex -5.2 5.2 0
      vertex -5.2 1.37508 2
      vertex -5.2 5.2 2
    endloop
  endfacet
  facet normal -1 0 0
    outer loop
      vertex -5.2 5.2 0
      vertex -5.2 -1.37508 2
      vertex -5.2 1.37508 2
    endloop
  endfacet
  facet normal -1 0 0
    outer loop
      vertex -5.2 -5.2 0
      vertex -5.2 -1.37508 2
      vertex -5.2 5.2 0
    endloop
  endfacet
  facet normal -1 -0 0
    outer loop
      vertex -5.2 -1.37508 2
      vertex -5.2 -5.2 0
      vertex -5.2 -5.2 2
    endloop
  endfacet
  facet normal 1 -0 0
    outer loop
      vertex 5.2 1.37508 2
      vertex 5.2 5.2 0
      vertex 5.2 5.2 2
    endloop
  endfacet
  facet normal 1 -0 0
    outer loop
      vertex 5.2 -1.37508 2
      vertex 5.2 5.2 0
      vertex 5.2 1.37508 2
    endloop
  endfacet
  facet normal 1 0 0
    outer loop
      vertex 5.2 -5.2 0
      vertex 5.2 -1.37508 2
      vertex 5.2 -5.2 2
    endloop
  endfacet
  facet normal 1 0 0
    outer loop
      vertex 5.2 -1.37508 2
      vertex 5.2 -5.2 0
      vertex 5.2 5.2 0
    endloop
  endfacet
  facet normal 0 1 -0
    outer loop
      vertex 5.2 5.2 0
      vertex 1.36621 5.2 2
      vertex 5.2 5.2 2
    endloop
  endfacet
  facet normal 0 1 0
    outer loop
      vertex 1.36621 5.2 2
      vertex 5.2 5.2 0
      vertex -1.36621 5.2 2
    endloop
  endfacet
  facet normal 0 1 0
    outer loop
      vertex -5.2 5.2 0
      vertex -1.36621 5.2 2
      vertex 5.2 5.2 0
    endloop
  endfacet
  facet normal 0 1 0
    outer loop
      vertex -1.36621 5.2 2
      vertex -5.2 5.2 0
      vertex -5.2 5.2 2
    endloop
  endfacet
  facet normal 0 0 -1
    outer loop
      vertex 5.2 -5.2 0
      vertex 3.24 0 0
      vertex 5.2 5.2 0
    endloop
  endfacet
  facet normal 0 0 -1
    outer loop
      vertex 5.2 -5.2 0
      vertex 3.1692 -0.673633 0
      vertex 3.24 0 0
    endloop
  endfacet
  facet normal 0 0 -1
    outer loop
      vertex 5.2 -5.2 0
      vertex 2.95989 -1.31783 0
      vertex 3.1692 -0.673633 0
    endloop
  endfacet
  facet normal 0 0 -1
    outer loop
      vertex 5.2 -5.2 0
      vertex 2.62121 -1.90442 0
      vertex 2.95989 -1.31783 0
    endloop
  endfacet
  facet normal 0 0 -1
    outer loop
      vertex 5.2 -5.2 0
      vertex 2.16798 -2.40779 0
      vertex 2.62121 -1.90442 0
    endloop
  endfacet
  facet normal 0 0 -1
    outer loop
      vertex 5.2 -5.2 0
      vertex 1.62 -2.80592 0
      vertex 2.16798 -2.40779 0
    endloop
  endfacet
  facet normal 0 0 -1
    outer loop
      vertex 5.2 -5.2 0
      vertex 1.00121 -3.08142 0
      vertex 1.62 -2.80592 0
    endloop
  endfacet
  facet normal 0 0 -1
    outer loop
      vertex 5.2 -5.2 0
      vertex 0.338672 -3.22225 0
      vertex 1.00121 -3.08142 0
    endloop
  endfacet
  facet normal 0 0 -1
    outer loop
      vertex 5.2 -5.2 0
      vertex -0.338672 -3.22225 0
      vertex 0.338672 -3.22225 0
    endloop
  endfacet
  facet normal 0 0 -1
    outer loop
      vertex -5.2 -5.2 0
      vertex -0.338672 -3.22225 0
      vertex 5.2 -5.2 0
    endloop
  endfacet
  facet normal -0 0 -1
    outer loop
      vertex -3.1692 -0.673633 0
      vertex -5.2 -5.2 0
      vertex -3.24 0 0
    endloop
  endfacet
  facet normal -0 0 -1
    outer loop
      vertex -2.95989 -1.31783 0
      vertex -5.2 -5.2 0
      vertex -3.1692 -0.673633 0
    endloop
  endfacet
  facet normal -0 0 -1
    outer loop
      vertex -2.62121 -1.90442 0
      vertex -5.2 -5.2 0
      vertex -2.95989 -1.31783 0
    endloop
  endfacet
  facet normal -0 0 -1
    outer loop
      vertex -2.16798 -2.40779 0
      vertex -5.2 -5.2 0
      vertex -2.62121 -1.90442 0
    endloop
  endfacet
  facet normal -0 0 -1
    outer loop
      vertex -1.62 -2.80592 0
      vertex -5.2 -5.2 0
      vertex -2.16798 -2.40779 0
    endloop
  endfacet
  facet normal -0 0 -1
    outer loop
      vertex -1.00121 -3.08142 0
      vertex -5.2 -5.2 0
      vertex -1.62 -2.80592 0
    endloop
  endfacet
  facet normal -0 0 -1
    outer loop
      vertex -0.338672 -3.22225 0
      vertex -5.2 -5.2 0
      vertex -1.00121 -3.08142 0
    endloop
  endfacet
  facet normal 0 0 -1
    outer loop
      vertex 3.1692 0.673633 0
      vertex 5.2 5.2 0
      vertex 3.24 0 0
    endloop
  endfacet
  facet normal 0 0 -1
    outer loop
      vertex 2.95989 1.31783 0
      vertex 5.2 5.2 0
      vertex 3.1692 0.673633 0
    endloop
  endfacet
  facet normal 0 0 -1
    outer loop
      vertex 2.62121 1.90442 0
      vertex 5.2 5.2 0
      vertex 2.95989 1.31783 0
    endloop
  endfacet
  facet normal 0 0 -1
    outer loop
      vertex 2.16798 2.40779 0
      vertex 5.2 5.2 0
      vertex 2.62121 1.90442 0
    endloop
  endfacet
  facet normal 0 0 -1
    outer loop
      vertex 1.62 2.80592 0
      vertex 5.2 5.2 0
      vertex 2.16798 2.40779 0
    endloop
  endfacet
  facet normal 0 0 -1
    outer loop
      vertex 1.00121 3.08142 0
      vertex 5.2 5.2 0
      vertex 1.62 2.80592 0
    endloop
  endfacet
  facet normal 0 0 -1
    outer loop
      vertex 0.338672 3.22225 0
      vertex 5.2 5.2 0
      vertex 1.00121 3.08142 0
    endloop
  endfacet
  facet normal 0 0 -1
    outer loop
      vertex -0.338672 3.22225 0
      vertex 5.2 5.2 0
      vertex 0.338672 3.22225 0
    endloop
  endfacet
  facet normal 0 0 -1
    outer loop
      vertex -5.2 5.2 0
      vertex -0.338672 3.22225 0
      vertex -1.00121 3.08142 0
    endloop
  endfacet
  facet normal 0 0 -1
    outer loop
      vertex -5.2 5.2 0
      vertex -3.24 0 0
      vertex -5.2 -5.2 0
    endloop
  endfacet
  facet normal 0 0 -1
    outer loop
      vertex -3.24 0 0
      vertex -5.2 5.2 0
      vertex -3.1692 0.673633 0
    endloop
  endfacet
  facet normal 0 0 -1
    outer loop
      vertex -0.338672 3.22225 0
      vertex -5.2 5.2 0
      vertex 5.2 5.2 0
    endloop
  endfacet
  facet normal 0 0 -1
    outer loop
      vertex -1.62 2.80592 0
      vertex -5.2 5.2 0
      vertex -1.00121 3.08142 0
    endloop
  endfacet
  facet normal 0 0 -1
    outer loop
      vertex -2.16798 2.40779 0
      vertex -5.2 5.2 0
      vertex -1.62 2.80592 0
    endloop
  endfacet
  facet normal 0 0 -1
    outer loop
      vertex -2.62121 1.90442 0
      vertex -5.2 5.2 0
      vertex -2.16798 2.40779 0
    endloop
  endfacet
  facet normal 0 0 -1
    outer loop
      vertex -2.95989 1.31783 0
      vertex -5.2 5.2 0
      vertex -2.62121 1.90442 0
    endloop
  endfacet
  facet normal 0 0 -1
    outer loop
      vertex -3.1692 0.673633 0
      vertex -5.2 5.2 0
      vertex -2.95989 1.31783 0
    endloop
  endfacet
  facet normal 0 -1 0
    outer loop
      vertex -5.2 -5.2 0
      vertex -1.36621 -5.2 2
      vertex -5.2 -5.2 2
    endloop
  endfacet
  facet normal 0 -1 -0
    outer loop
      vertex -1.36621 -5.2 2
      vertex -5.2 -5.2 0
      vertex 1.36621 -5.2 2
    endloop
  endfacet
  facet normal 0 -1 0
    outer loop
      vertex 5.2 -5.2 0
      vertex 1.36621 -5.2 2
      vertex -5.2 -5.2 0
    endloop
  endfacet
  facet normal 0 -1 0
    outer loop
      vertex 1.36621 -5.2 2
      vertex 5.2 -5.2 0
      vertex 5.2 -5.2 2
    endloop
  endfacet
endsolid OpenSCAD_Model
