solid OpenSCAD_Model
  facet normal -1 0 0
    outer loop
      vertex -7.8 17.6 0
      vertex -7.8 11.7 3.5
      vertex -7.8 17.6 30
    endloop
  endfacet
  facet normal -1 0 0
    outer loop
      vertex -7.8 17.6 0
      vertex -7.8 5.9 3.5
      vertex -7.8 11.7 3.5
    endloop
  endfacet
  facet normal -1 -0 0
    outer loop
      vertex -7.8 5.9 3.5
      vertex -7.8 0 0
      vertex -7.8 5.9 26.5
    endloop
  endfacet
  facet normal -1 0 0
    outer loop
      vertex -7.8 0 0
      vertex -7.8 5.9 3.5
      vertex -7.8 17.6 0
    endloop
  endfacet
  facet normal -1 0 0
    outer loop
      vertex -7.8 11.7 26.5
      vertex -7.8 17.6 30
      vertex -7.8 11.7 3.5
    endloop
  endfacet
  facet normal -1 0 0
    outer loop
      vertex -7.8 5.9 26.5
      vertex -7.8 17.6 30
      vertex -7.8 11.7 26.5
    endloop
  endfacet
  facet normal -1 0 0
    outer loop
      vertex -7.8 5.9 26.5
      vertex -7.8 0 30
      vertex -7.8 17.6 30
    endloop
  endfacet
  facet normal -1 0 0
    outer loop
      vertex -7.8 0 30
      vertex -7.8 5.9 26.5
      vertex -7.8 0 0
    endloop
  endfacet
  facet normal -0 0 1
    outer loop
      vertex -2.75 13.3 30
      vertex 2.75 4.3 30
      vertex 2.75 13.3 30
    endloop
  endfacet
  facet normal 0 0 1
    outer loop
      vertex 2.75 4.3 30
      vertex -2.75 13.3 30
      vertex -2.75 4.3 30
    endloop
  endfacet
  facet normal 0 0 1
    outer loop
      vertex 2.75 13.3 30
      vertex 7.8 17.6 30
      vertex 2.75 16.5 30
    endloop
  endfacet
  facet normal 0 0 1
    outer loop
      vertex 7.8 17.6 30
      vertex -2.75 16.5 30
      vertex 2.75 16.5 30
    endloop
  endfacet
  facet normal 0 0 1
    outer loop
      vertex -7.8 17.6 30
      vertex -2.75 13.3 30
      vertex -2.75 16.5 30
    endloop
  endfacet
  facet normal 0 0 1
    outer loop
      vertex -2.75 13.3 30
      vertex -7.8 17.6 30
      vertex -2.75 4.3 30
    endloop
  endfacet
  facet normal 0 0 1
    outer loop
      vertex -7.8 0 30
      vertex -2.75 4.3 30
      vertex -7.8 17.6 30
    endloop
  endfacet
  facet normal -0 0 1
    outer loop
      vertex -7.8 17.6 30
      vertex -2.75 16.5 30
      vertex 7.8 17.6 30
    endloop
  endfacet
  facet normal 0 0 1
    outer loop
      vertex 7.8 17.6 30
      vertex 2.75 13.3 30
      vertex 7.8 0 30
    endloop
  endfacet
  facet normal -0 0 1
    outer loop
      vertex 2.75 4.3 30
      vertex 7.8 0 30
      vertex 2.75 13.3 30
    endloop
  endfacet
  facet normal -0 0 1
    outer loop
      vertex 2.75 1.1 30
      vertex 7.8 0 30
      vertex 2.75 4.3 30
    endloop
  endfacet
  facet normal -0 0 1
    outer loop
      vertex -2.75 1.1 30
      vertex 7.8 0 30
      vertex 2.75 1.1 30
    endloop
  endfacet
  facet normal 0 0 1
    outer loop
      vertex -2.75 1.1 30
      vertex -7.8 0 30
      vertex 7.8 0 30
    endloop
  endfacet
  facet normal 0 0 1
    outer loop
      vertex -2.75 4.3 30
      vertex -7.8 0 30
      vertex -2.75 1.1 30
    endloop
  endfacet
  facet normal 1 0 0
    outer loop
      vertex 7.8 17.6 30
      vertex 7.8 11.7 26.5
      vertex 7.8 17.6 0
    endloop
  endfacet
  facet normal 1 0 0
    outer loop
      vertex 7.8 17.6 30
      vertex 7.8 5.9 26.5
      vertex 7.8 11.7 26.5
    endloop
  endfacet
  facet normal 1 0 0
    outer loop
      vertex 7.8 5.9 26.5
      vertex 7.8 0 30
      vertex 7.8 5.9 3.5
    endloop
  endfacet
  facet normal 1 -0 0
    outer loop
      vertex 7.8 0 30
      vertex 7.8 5.9 26.5
      vertex 7.8 17.6 30
    endloop
  endfacet
  facet normal 1 -0 0
    outer loop
      vertex 7.8 11.7 3.5
      vertex 7.8 17.6 0
      vertex 7.8 11.7 26.5
    endloop
  endfacet
  facet normal 1 -0 0
    outer loop
      vertex 7.8 5.9 3.5
      vertex 7.8 17.6 0
      vertex 7.8 11.7 3.5
    endloop
  endfacet
  facet normal 1 0 0
    outer loop
      vertex 7.8 5.9 3.5
      vertex 7.8 0 0
      vertex 7.8 17.6 0
    endloop
  endfacet
  facet normal 1 0 0
    outer loop
      vertex 7.8 0 0
      vertex 7.8 5.9 3.5
      vertex 7.8 0 30
    endloop
  endfacet
  facet normal 0 1 0
    outer loop
      vertex 7.8 17.6 30
      vertex 1.7 17.6 26.5
      vertex -7.8 17.6 30
    endloop
  endfacet
  facet normal 0 1 0
    outer loop
      vertex 7.8 17.6 30
      vertex 1.7 17.6 3.5
      vertex 1.7 17.6 26.5
    endloop
  endfacet
  facet normal 0 1 0
    outer loop
      vertex 1.7 17.6 3.5
      vertex 7.8 17.6 0
      vertex -1.7 17.6 3.5
    endloop
  endfacet
  facet normal 0 1 -0
    outer loop
      vertex 7.8 17.6 0
      vertex 1.7 17.6 3.5
      vertex 7.8 17.6 30
    endloop
  endfacet
  facet normal 0 1 -0
    outer loop
      vertex -1.7 17.6 26.5
      vertex -7.8 17.6 30
      vertex 1.7 17.6 26.5
    endloop
  endfacet
  facet normal 0 1 -0
    outer loop
      vertex -1.7 17.6 3.5
      vertex -7.8 17.6 30
      vertex -1.7 17.6 26.5
    endloop
  endfacet
  facet normal 0 1 0
    outer loop
      vertex -1.7 17.6 3.5
      vertex -7.8 17.6 0
      vertex -7.8 17.6 30
    endloop
  endfacet
  facet normal 0 1 0
    outer loop
      vertex -7.8 17.6 0
      vertex -1.7 17.6 3.5
      vertex 7.8 17.6 0
    endloop
  endfacet
  facet normal 0 0 -1
    outer loop
      vertex -0.800738 4.07454 0
      vertex 0.800738 13.5255 0
      vertex 0.800738 4.07454 0
    endloop
  endfacet
  facet normal -0 0 -1
    outer loop
      vertex 0.800738 13.5255 0
      vertex -0.800738 4.07454 0
      vertex -0.800738 13.5255 0
    endloop
  endfacet
  facet normal 0 0 -1
    outer loop
      vertex 0.800738 4.07454 0
      vertex 7.8 0 0
      vertex 0.800738 1.32545 0
    endloop
  endfacet
  facet normal 0 0 -1
    outer loop
      vertex 7.8 0 0
      vertex -0.800738 1.32545 0
      vertex 0.800738 1.32545 0
    endloop
  endfacet
  facet normal 0 0 -1
    outer loop
      vertex -7.8 0 0
      vertex -0.800738 4.07454 0
      vertex -0.800738 1.32545 0
    endloop
  endfacet
  facet normal -0 0 -1
    outer loop
      vertex -0.800738 4.07454 0
      vertex -7.8 0 0
      vertex -0.800738 13.5255 0
    endloop
  endfacet
  facet normal 0 0 -1
    outer loop
      vertex -7.8 17.6 0
      vertex -0.800738 13.5255 0
      vertex -7.8 0 0
    endloop
  endfacet
  facet normal 0 0 -1
    outer loop
      vertex -7.8 0 0
      vertex -0.800738 1.32545 0
      vertex 7.8 0 0
    endloop
  endfacet
  facet normal 0 0 -1
    outer loop
      vertex 7.8 0 0
      vertex 0.800738 4.07454 0
      vertex 7.8 17.6 0
    endloop
  endfacet
  facet normal 0 0 -1
    outer loop
      vertex 0.800738 13.5255 0
      vertex 7.8 17.6 0
      vertex 0.800738 4.07454 0
    endloop
  endfacet
  facet normal 0 0 -1
    outer loop
      vertex 0.800738 16.2745 0
      vertex 7.8 17.6 0
      vertex 0.800738 13.5255 0
    endloop
  endfacet
  facet normal 0 0 -1
    outer loop
      vertex -0.800738 16.2745 0
      vertex 7.8 17.6 0
      vertex 0.800738 16.2745 0
    endloop
  endfacet
  facet normal 0 0 -1
    outer loop
      vertex -0.800738 16.2745 0
      vertex -7.8 17.6 0
      vertex 7.8 17.6 0
    endloop
  endfacet
  facet normal 0 0 -1
    outer loop
      vertex -0.800738 13.5255 0
      vertex -7.8 17.6 0
      vertex -0.800738 16.2745 0
    endloop
  endfacet
  facet normal 0 -1 0
    outer loop
      vertex -7.8 0 30
      vertex -1.7 0 26.5
      vertex 7.8 0 30
    endloop
  endfacet
  facet normal 0 -1 0
    outer loop
      vertex -7.8 0 30
      vertex -1.7 0 3.5
      vertex -1.7 0 26.5
    endloop
  endfacet
  facet normal 0 -1 -0
    outer loop
      vertex -1.7 0 3.5
      vertex -7.8 0 0
      vertex 1.7 0 3.5
    endloop
  endfacet
  facet normal 0 -1 0
    outer loop
      vertex -7.8 0 0
      vertex -1.7 0 3.5
      vertex -7.8 0 30
    endloop
  endfacet
  facet normal 0 -1 0
    outer loop
      vertex 1.7 0 26.5
      vertex 7.8 0 30
      vertex -1.7 0 26.5
    endloop
  endfacet
  facet normal 0 -1 0
    outer loop
      vertex 1.7 0 3.5
      vertex 7.8 0 30
      vertex 1.7 0 26.5
    endloop
  endfacet
  facet normal 0 -1 0
    outer loop
      vertex 1.7 0 3.5
      vertex 7.8 0 0
      vertex 7.8 0 30
    endloop
  endfacet
  facet normal 0 -1 0
    outer loop
      vertex 7.8 0 0
      vertex 1.7 0 3.5
      vertex -7.8 0 0
    endloop
  endfacet
  facet normal 0 0 -1
    outer loop
      vertex -7.8 5.9 26.5
      vertex -1.7 11.7 26.5
      vertex -1.7 5.9 26.5
    endloop
  endfacet
  facet normal -0 0 -1
    outer loop
      vertex -1.7 11.7 26.5
      vertex -7.8 5.9 26.5
      vertex -7.8 11.7 26.5
    endloop
  endfacet
  facet normal 0 0 -1
    outer loop
      vertex -1.7 5.9 26.5
      vertex 1.7 5.9 26.5
      vertex 1.7 4.3 26.5
    endloop
  endfacet
  facet normal 0 0 -1
    outer loop
      vertex 1.7 5.9 26.5
      vertex -1.7 5.9 26.5
      vertex 1.7 11.7 26.5
    endloop
  endfacet
  facet normal 0 0 -1
    outer loop
      vertex -1.7 5.9 26.5
      vertex 1.7 4.3 26.5
      vertex -1.7 4.3 26.5
    endloop
  endfacet
  facet normal 0 0 -1
    outer loop
      vertex -1.7 11.7 26.5
      vertex 1.7 11.7 26.5
      vertex -1.7 5.9 26.5
    endloop
  endfacet
  facet normal 0 0 -1
    outer loop
      vertex 1.7 11.7 26.5
      vertex -1.7 11.7 26.5
      vertex 1.7 13.3 26.5
    endloop
  endfacet
  facet normal -0 0 -1
    outer loop
      vertex 1.7 13.3 26.5
      vertex -1.7 11.7 26.5
      vertex -1.7 13.3 26.5
    endloop
  endfacet
  facet normal 0 0 -1
    outer loop
      vertex 1.7 5.9 26.5
      vertex 7.8 11.7 26.5
      vertex 7.8 5.9 26.5
    endloop
  endfacet
  facet normal -0 0 -1
    outer loop
      vertex 7.8 11.7 26.5
      vertex 1.7 5.9 26.5
      vertex 1.7 11.7 26.5
    endloop
  endfacet
  facet normal 0 0 -1
    outer loop
      vertex -1.7 16.5 26.5
      vertex 1.7 17.6 26.5
      vertex 1.7 16.5 26.5
    endloop
  endfacet
  facet normal -0 0 -1
    outer loop
      vertex 1.7 17.6 26.5
      vertex -1.7 16.5 26.5
      vertex -1.7 17.6 26.5
    endloop
  endfacet
  facet normal 0 0 -1
    outer loop
      vertex -1.7 0 26.5
      vertex 1.7 1.1 26.5
      vertex 1.7 0 26.5
    endloop
  endfacet
  facet normal -0 0 -1
    outer loop
      vertex 1.7 1.1 26.5
      vertex -1.7 0 26.5
      vertex -1.7 1.1 26.5
    endloop
  endfacet
  facet normal 0 -1 0
    outer loop
      vertex -7.8 11.7 3.5
      vertex -1.7 11.7 26.5
      vertex -7.8 11.7 26.5
    endloop
  endfacet
  facet normal 0 -1 -0
    outer loop
      vertex -1.7 11.7 26.5
      vertex -7.8 11.7 3.5
      vertex -1.7 11.7 3.5
    endloop
  endfacet
  facet normal 0 -1 0
    outer loop
      vertex 1.7 11.7 3.5
      vertex 7.8 11.7 26.5
      vertex 1.7 11.7 26.5
    endloop
  endfacet
  facet normal 0 -1 -0
    outer loop
      vertex 7.8 11.7 26.5
      vertex 1.7 11.7 3.5
      vertex 7.8 11.7 3.5
    endloop
  endfacet
  facet normal -0 0 1
    outer loop
      vertex -7.8 11.7 3.5
      vertex -1.7 5.9 3.5
      vertex -1.7 11.7 3.5
    endloop
  endfacet
  facet normal 0 0 1
    outer loop
      vertex -1.7 5.9 3.5
      vertex -7.8 11.7 3.5
      vertex -7.8 5.9 3.5
    endloop
  endfacet
  facet normal 0 0 1
    outer loop
      vertex -1.7 11.7 3.5
      vertex 1.7 11.7 3.5
      vertex 1.7 13.3 3.5
    endloop
  endfacet
  facet normal 0 0 1
    outer loop
      vertex 1.7 11.7 3.5
      vertex -1.7 11.7 3.5
      vertex 1.7 5.9 3.5
    endloop
  endfacet
  facet normal 0 0 1
    outer loop
      vertex -1.7 11.7 3.5
      vertex 1.7 13.3 3.5
      vertex -1.7 13.3 3.5
    endloop
  endfacet
  facet normal 0 0 1
    outer loop
      vertex -1.7 5.9 3.5
      vertex 1.7 5.9 3.5
      vertex -1.7 11.7 3.5
    endloop
  endfacet
  facet normal 0 0 1
    outer loop
      vertex 1.7 5.9 3.5
      vertex -1.7 5.9 3.5
      vertex 1.7 4.3 3.5
    endloop
  endfacet
  facet normal 0 0 1
    outer loop
      vertex 1.7 4.3 3.5
      vertex -1.7 5.9 3.5
      vertex -1.7 4.3 3.5
    endloop
  endfacet
  facet normal -0 0 1
    outer loop
      vertex 1.7 11.7 3.5
      vertex 7.8 5.9 3.5
      vertex 7.8 11.7 3.5
    endloop
  endfacet
  facet normal 0 0 1
    outer loop
      vertex 7.8 5.9 3.5
      vertex 1.7 11.7 3.5
      vertex 1.7 5.9 3.5
    endloop
  endfacet
  facet normal -0 0 1
    outer loop
      vertex -1.7 17.6 3.5
      vertex 1.7 16.5 3.5
      vertex 1.7 17.6 3.5
    endloop
  endfacet
  facet normal 0 0 1
    outer loop
      vertex 1.7 16.5 3.5
      vertex -1.7 17.6 3.5
      vertex -1.7 16.5 3.5
    endloop
  endfacet
  facet normal -0 0 1
    outer loop
      vertex -1.7 1.1 3.5
      vertex 1.7 0 3.5
      vertex 1.7 1.1 3.5
    endloop
  endfacet
  facet normal 0 0 1
    outer loop
      vertex 1.7 0 3.5
      vertex -1.7 1.1 3.5
      vertex -1.7 0 3.5
    endloop
  endfacet
  facet normal 0 1 -0
    outer loop
      vertex -1.7 5.9 3.5
      vertex -7.8 5.9 26.5
      vertex -1.7 5.9 26.5
    endloop
  endfacet
  facet normal 0 1 0
    outer loop
      vertex -7.8 5.9 26.5
      vertex -1.7 5.9 3.5
      vertex -7.8 5.9 3.5
    endloop
  endfacet
  facet normal 0 1 -0
    outer loop
      vertex 7.8 5.9 3.5
      vertex 1.7 5.9 26.5
      vertex 7.8 5.9 26.5
    endloop
  endfacet
  facet normal 0 1 0
    outer loop
      vertex 1.7 5.9 26.5
      vertex 7.8 5.9 3.5
      vertex 1.7 5.9 3.5
    endloop
  endfacet
  facet normal 1 -0 0
    outer loop
      vertex -1.7 4.3 26.5
      vertex -1.7 5.9 3.5
      vertex -1.7 5.9 26.5
    endloop
  endfacet
  facet normal 1 0 0
    outer loop
      vertex -1.7 5.9 3.5
      vertex -1.7 4.3 26.5
      vertex -1.7 4.3 3.5
    endloop
  endfacet
  facet normal 1 -0 0
    outer loop
      vertex -1.7 11.7 26.5
      vertex -1.7 13.3 3.5
      vertex -1.7 13.3 26.5
    endloop
  endfacet
  facet normal 1 0 0
    outer loop
      vertex -1.7 13.3 3.5
      vertex -1.7 11.7 26.5
      vertex -1.7 11.7 3.5
    endloop
  endfacet
  facet normal 1 -0 0
    outer loop
      vertex -1.7 16.5 26.5
      vertex -1.7 17.6 3.5
      vertex -1.7 17.6 26.5
    endloop
  endfacet
  facet normal 1 0 0
    outer loop
      vertex -1.7 17.6 3.5
      vertex -1.7 16.5 26.5
      vertex -1.7 16.5 3.5
    endloop
  endfacet
  facet normal 1 -0 0
    outer loop
      vertex -1.7 0 26.5
      vertex -1.7 1.1 3.5
      vertex -1.7 1.1 26.5
    endloop
  endfacet
  facet normal 1 0 0
    outer loop
      vertex -1.7 1.1 3.5
      vertex -1.7 0 26.5
      vertex -1.7 0 3.5
    endloop
  endfacet
  facet normal -1 0 0
    outer loop
      vertex 1.7 4.3 3.5
      vertex 1.7 5.9 26.5
      vertex 1.7 5.9 3.5
    endloop
  endfacet
  facet normal -1 -0 0
    outer loop
      vertex 1.7 5.9 26.5
      vertex 1.7 4.3 3.5
      vertex 1.7 4.3 26.5
    endloop
  endfacet
  facet normal -1 0 0
    outer loop
      vertex 1.7 11.7 3.5
      vertex 1.7 13.3 26.5
      vertex 1.7 13.3 3.5
    endloop
  endfacet
  facet normal -1 -0 0
    outer loop
      vertex 1.7 13.3 26.5
      vertex 1.7 11.7 3.5
      vertex 1.7 11.7 26.5
    endloop
  endfacet
  facet normal -1 0 0
    outer loop
      vertex 1.7 16.5 3.5
      vertex 1.7 17.6 26.5
      vertex 1.7 17.6 3.5
    endloop
  endfacet
  facet normal -1 -0 0
    outer loop
      vertex 1.7 17.6 26.5
      vertex 1.7 16.5 3.5
      vertex 1.7 16.5 26.5
    endloop
  endfacet
  facet normal -1 0 0
    outer loop
      vertex 1.7 0 3.5
      vertex 1.7 1.1 26.5
      vertex 1.7 1.1 3.5
    endloop
  endfacet
  facet normal -1 -0 0
    outer loop
      vertex 1.7 1.1 26.5
      vertex 1.7 0 3.5
      vertex 1.7 0 26.5
    endloop
  endfacet
  facet normal -0.5 0 -0.866026
    outer loop
      vertex 2.75 13.5255 5.22459
      vertex 3.15 16.2745 4.99365
      vertex 3.15 13.5255 4.99365
    endloop
  endfacet
  facet normal -0.5 0 -0.866026
    outer loop
      vertex 3.15 16.2745 4.99365
      vertex 2.75 13.5255 5.22459
      vertex 2.75 16.2745 5.22459
    endloop
  endfacet
  facet normal 0.500001 0 0.866025
    outer loop
      vertex -3.15 16.2745 1.35635
      vertex -0.800738 13.5255 0
      vertex -0.800738 16.2745 0
    endloop
  endfacet
  facet normal 0.500001 0 0.866025
    outer loop
      vertex -0.800738 13.5255 0
      vertex -3.15 16.2745 1.35635
      vertex -3.15 13.5255 1.35635
    endloop
  endfacet
  facet normal -1 0 0
    outer loop
      vertex 3.15 13.5255 1.35635
      vertex 3.15 16.2745 4.99365
      vertex 3.15 16.2745 1.35635
    endloop
  endfacet
  facet normal -1 -0 0
    outer loop
      vertex 3.15 16.2745 4.99365
      vertex 3.15 13.5255 1.35635
      vertex 3.15 13.5255 4.99365
    endloop
  endfacet
  facet normal 1 -0 0
    outer loop
      vertex -3.15 13.5255 4.99365
      vertex -3.15 16.2745 1.35635
      vertex -3.15 16.2745 4.99365
    endloop
  endfacet
  facet normal 1 0 0
    outer loop
      vertex -3.15 16.2745 1.35635
      vertex -3.15 13.5255 4.99365
      vertex -3.15 13.5255 1.35635
    endloop
  endfacet
  facet normal 0 1 0
    outer loop
      vertex 3.15 13.5255 4.99365
      vertex 2.75 13.5255 3.175
      vertex 2.75 13.5255 5.22459
    endloop
  endfacet
  facet normal 0 1 0
    outer loop
      vertex 0.800738 13.5255 0
      vertex 2.75 13.5255 3.175
      vertex 3.15 13.5255 1.35635
    endloop
  endfacet
  facet normal 0 1 -0
    outer loop
      vertex 3.15 13.5255 1.35635
      vertex 2.75 13.5255 3.175
      vertex 3.15 13.5255 4.99365
    endloop
  endfacet
  facet normal 0 1 -0
    outer loop
      vertex -2.75 13.5255 3.175
      vertex -3.15 13.5255 4.99365
      vertex -2.75 13.5255 5.22459
    endloop
  endfacet
  facet normal 0 1 0
    outer loop
      vertex -2.75 13.5255 3.175
      vertex -3.15 13.5255 1.35635
      vertex -3.15 13.5255 4.99365
    endloop
  endfacet
  facet normal 0 1 0
    outer loop
      vertex 2.75 13.5255 3.175
      vertex 0.800738 13.5255 0
      vertex -2.75 13.5255 3.175
    endloop
  endfacet
  facet normal 0 1 -0
    outer loop
      vertex -0.800738 13.5255 0
      vertex -2.75 13.5255 3.175
      vertex 0.800738 13.5255 0
    endloop
  endfacet
  facet normal 0 1 0
    outer loop
      vertex -2.75 13.5255 3.175
      vertex -0.800738 13.5255 0
      vertex -3.15 13.5255 1.35635
    endloop
  endfacet
  facet normal 0 -1 0
    outer loop
      vertex -3.15 16.2745 4.99365
      vertex -2.75 16.2745 3.175
      vertex -2.75 16.2745 5.22459
    endloop
  endfacet
  facet normal 0 -1 0
    outer loop
      vertex -0.800738 16.2745 0
      vertex -2.75 16.2745 3.175
      vertex -3.15 16.2745 1.35635
    endloop
  endfacet
  facet normal 0 -1 0
    outer loop
      vertex -3.15 16.2745 1.35635
      vertex -2.75 16.2745 3.175
      vertex -3.15 16.2745 4.99365
    endloop
  endfacet
  facet normal 0 -1 0
    outer loop
      vertex 2.75 16.2745 3.175
      vertex 3.15 16.2745 4.99365
      vertex 2.75 16.2745 5.22459
    endloop
  endfacet
  facet normal 0 -1 0
    outer loop
      vertex 2.75 16.2745 3.175
      vertex 3.15 16.2745 1.35635
      vertex 3.15 16.2745 4.99365
    endloop
  endfacet
  facet normal 0 -1 0
    outer loop
      vertex -2.75 16.2745 3.175
      vertex -0.800738 16.2745 0
      vertex 2.75 16.2745 3.175
    endloop
  endfacet
  facet normal 0 -1 0
    outer loop
      vertex 0.800738 16.2745 0
      vertex 2.75 16.2745 3.175
      vertex -0.800738 16.2745 0
    endloop
  endfacet
  facet normal 0 -1 -0
    outer loop
      vertex 2.75 16.2745 3.175
      vertex 0.800738 16.2745 0
      vertex 3.15 16.2745 1.35635
    endloop
  endfacet
  facet normal -0.500001 0 0.866025
    outer loop
      vertex 0.800738 16.2745 0
      vertex 3.15 13.5255 1.35635
      vertex 3.15 16.2745 1.35635
    endloop
  endfacet
  facet normal -0.500001 0 0.866025
    outer loop
      vertex 3.15 13.5255 1.35635
      vertex 0.800738 16.2745 0
      vertex 0.800738 13.5255 0
    endloop
  endfacet
  facet normal 0.5 0 -0.866026
    outer loop
      vertex -3.15 13.5255 4.99365
      vertex -2.75 16.2745 5.22459
      vertex -2.75 13.5255 5.22459
    endloop
  endfacet
  facet normal 0.5 0 -0.866026
    outer loop
      vertex -2.75 16.2745 5.22459
      vertex -3.15 13.5255 4.99365
      vertex -3.15 16.2745 4.99365
    endloop
  endfacet
  facet normal 1 0 0
    outer loop
      vertex -2.75 16.5 30
      vertex -2.75 16.2745 5.22459
      vertex -2.75 16.5 3.175
    endloop
  endfacet
  facet normal 1 0 0
    outer loop
      vertex -2.75 16.5 30
      vertex -2.75 13.5255 5.22459
      vertex -2.75 16.2745 5.22459
    endloop
  endfacet
  facet normal 1 -0 0
    outer loop
      vertex -2.75 13.3 30
      vertex -2.75 13.5255 5.22459
      vertex -2.75 16.5 30
    endloop
  endfacet
  facet normal 1 0 0
    outer loop
      vertex -2.75 13.3 3.175
      vertex -2.75 13.5255 5.22459
      vertex -2.75 13.3 30
    endloop
  endfacet
  facet normal 1 0 0
    outer loop
      vertex -2.75 13.5255 5.22459
      vertex -2.75 13.3 3.175
      vertex -2.75 13.5255 3.175
    endloop
  endfacet
  facet normal 1 0 0
    outer loop
      vertex -2.75 16.5 3.175
      vertex -2.75 16.2745 5.22459
      vertex -2.75 16.2745 3.175
    endloop
  endfacet
  facet normal -1 0 0
    outer loop
      vertex 2.75 13.5255 3.175
      vertex 2.75 13.3 3.175
      vertex 2.75 13.5255 5.22459
    endloop
  endfacet
  facet normal -1 0 0
    outer loop
      vertex 2.75 16.2745 5.22459
      vertex 2.75 16.5 3.175
      vertex 2.75 16.2745 3.175
    endloop
  endfacet
  facet normal -1 0 0
    outer loop
      vertex 2.75 16.5 3.175
      vertex 2.75 16.2745 5.22459
      vertex 2.75 16.5 30
    endloop
  endfacet
  facet normal -1 0 0
    outer loop
      vertex 2.75 13.5255 5.22459
      vertex 2.75 16.5 30
      vertex 2.75 16.2745 5.22459
    endloop
  endfacet
  facet normal -1 0 0
    outer loop
      vertex 2.75 13.5255 5.22459
      vertex 2.75 13.3 30
      vertex 2.75 16.5 30
    endloop
  endfacet
  facet normal -1 0 0
    outer loop
      vertex 2.75 13.3 30
      vertex 2.75 13.5255 5.22459
      vertex 2.75 13.3 3.175
    endloop
  endfacet
  facet normal -0 0 1
    outer loop
      vertex -2.75 13.5255 3.175
      vertex 2.75 13.3 3.175
      vertex 2.75 13.5255 3.175
    endloop
  endfacet
  facet normal 0 0 1
    outer loop
      vertex 2.75 13.3 3.175
      vertex -2.75 13.5255 3.175
      vertex -2.75 13.3 3.175
    endloop
  endfacet
  facet normal -0 0 1
    outer loop
      vertex -2.75 16.5 3.175
      vertex 2.75 16.2745 3.175
      vertex 2.75 16.5 3.175
    endloop
  endfacet
  facet normal 0 0 1
    outer loop
      vertex 2.75 16.2745 3.175
      vertex -2.75 16.5 3.175
      vertex -2.75 16.2745 3.175
    endloop
  endfacet
  facet normal 0 1 0
    outer loop
      vertex 2.75 13.3 30
      vertex 1.7 13.3 26.5
      vertex -2.75 13.3 30
    endloop
  endfacet
  facet normal 0 1 -0
    outer loop
      vertex 2.75 13.3 3.175
      vertex 1.7 13.3 26.5
      vertex 2.75 13.3 30
    endloop
  endfacet
  facet normal 0 1 0
    outer loop
      vertex 1.7 13.3 3.5
      vertex 2.75 13.3 3.175
      vertex -1.7 13.3 3.5
    endloop
  endfacet
  facet normal 0 1 0
    outer loop
      vertex 1.7 13.3 26.5
      vertex 2.75 13.3 3.175
      vertex 1.7 13.3 3.5
    endloop
  endfacet
  facet normal 0 1 -0
    outer loop
      vertex -1.7 13.3 26.5
      vertex -2.75 13.3 30
      vertex 1.7 13.3 26.5
    endloop
  endfacet
  facet normal 0 1 0
    outer loop
      vertex -2.75 13.3 3.175
      vertex -1.7 13.3 26.5
      vertex -1.7 13.3 3.5
    endloop
  endfacet
  facet normal 0 1 0
    outer loop
      vertex -1.7 13.3 26.5
      vertex -2.75 13.3 3.175
      vertex -2.75 13.3 30
    endloop
  endfacet
  facet normal 0 1 0
    outer loop
      vertex -2.75 13.3 3.175
      vertex -1.7 13.3 3.5
      vertex 2.75 13.3 3.175
    endloop
  endfacet
  facet normal 0 -1 0
    outer loop
      vertex -2.75 16.5 30
      vertex -1.7 16.5 26.5
      vertex 2.75 16.5 30
    endloop
  endfacet
  facet normal 0 -1 0
    outer loop
      vertex -2.75 16.5 3.175
      vertex -1.7 16.5 26.5
      vertex -2.75 16.5 30
    endloop
  endfacet
  facet normal 0 -1 -0
    outer loop
      vertex -1.7 16.5 3.5
      vertex -2.75 16.5 3.175
      vertex 1.7 16.5 3.5
    endloop
  endfacet
  facet normal 0 -1 -0
    outer loop
      vertex -1.7 16.5 26.5
      vertex -2.75 16.5 3.175
      vertex -1.7 16.5 3.5
    endloop
  endfacet
  facet normal 0 -1 0
    outer loop
      vertex 1.7 16.5 26.5
      vertex 2.75 16.5 30
      vertex -1.7 16.5 26.5
    endloop
  endfacet
  facet normal 0 -1 0
    outer loop
      vertex 2.75 16.5 3.175
      vertex 1.7 16.5 26.5
      vertex 1.7 16.5 3.5
    endloop
  endfacet
  facet normal 0 -1 0
    outer loop
      vertex 1.7 16.5 26.5
      vertex 2.75 16.5 3.175
      vertex 2.75 16.5 30
    endloop
  endfacet
  facet normal 0 -1 0
    outer loop
      vertex 2.75 16.5 3.175
      vertex 1.7 16.5 3.5
      vertex -2.75 16.5 3.175
    endloop
  endfacet
  facet normal -0.5 0 -0.866026
    outer loop
      vertex 2.75 1.32545 5.22459
      vertex 3.15 4.07454 4.99365
      vertex 3.15 1.32545 4.99365
    endloop
  endfacet
  facet normal -0.5 0 -0.866026
    outer loop
      vertex 3.15 4.07454 4.99365
      vertex 2.75 1.32545 5.22459
      vertex 2.75 4.07454 5.22459
    endloop
  endfacet
  facet normal 0.500001 0 0.866025
    outer loop
      vertex -3.15 4.07454 1.35635
      vertex -0.800738 1.32545 0
      vertex -0.800738 4.07454 0
    endloop
  endfacet
  facet normal 0.500001 0 0.866025
    outer loop
      vertex -0.800738 1.32545 0
      vertex -3.15 4.07454 1.35635
      vertex -3.15 1.32545 1.35635
    endloop
  endfacet
  facet normal -1 0 0
    outer loop
      vertex 3.15 1.32545 1.35635
      vertex 3.15 4.07454 4.99365
      vertex 3.15 4.07454 1.35635
    endloop
  endfacet
  facet normal -1 -0 0
    outer loop
      vertex 3.15 4.07454 4.99365
      vertex 3.15 1.32545 1.35635
      vertex 3.15 1.32545 4.99365
    endloop
  endfacet
  facet normal 1 -0 0
    outer loop
      vertex -3.15 1.32545 4.99365
      vertex -3.15 4.07454 1.35635
      vertex -3.15 4.07454 4.99365
    endloop
  endfacet
  facet normal 1 0 0
    outer loop
      vertex -3.15 4.07454 1.35635
      vertex -3.15 1.32545 4.99365
      vertex -3.15 1.32545 1.35635
    endloop
  endfacet
  facet normal 0 1 0
    outer loop
      vertex 3.15 1.32545 4.99365
      vertex 2.75 1.32545 3.175
      vertex 2.75 1.32545 5.22459
    endloop
  endfacet
  facet normal 0 1 0
    outer loop
      vertex 0.800738 1.32545 0
      vertex 2.75 1.32545 3.175
      vertex 3.15 1.32545 1.35635
    endloop
  endfacet
  facet normal 0 1 -0
    outer loop
      vertex 3.15 1.32545 1.35635
      vertex 2.75 1.32545 3.175
      vertex 3.15 1.32545 4.99365
    endloop
  endfacet
  facet normal 0 1 -0
    outer loop
      vertex -2.75 1.32545 3.175
      vertex -3.15 1.32545 4.99365
      vertex -2.75 1.32545 5.22459
    endloop
  endfacet
  facet normal 0 1 0
    outer loop
      vertex -2.75 1.32545 3.175
      vertex -3.15 1.32545 1.35635
      vertex -3.15 1.32545 4.99365
    endloop
  endfacet
  facet normal 0 1 0
    outer loop
      vertex 2.75 1.32545 3.175
      vertex 0.800738 1.32545 0
      vertex -2.75 1.32545 3.175
    endloop
  endfacet
  facet normal 0 1 -0
    outer loop
      vertex -0.800738 1.32545 0
      vertex -2.75 1.32545 3.175
      vertex 0.800738 1.32545 0
    endloop
  endfacet
  facet normal 0 1 0
    outer loop
      vertex -2.75 1.32545 3.175
      vertex -0.800738 1.32545 0
      vertex -3.15 1.32545 1.35635
    endloop
  endfacet
  facet normal 0 -1 0
    outer loop
      vertex -3.15 4.07454 4.99365
      vertex -2.75 4.07454 3.175
      vertex -2.75 4.07454 5.22459
    endloop
  endfacet
  facet normal 0 -1 0
    outer loop
      vertex -0.800738 4.07454 0
      vertex -2.75 4.07454 3.175
      vertex -3.15 4.07454 1.35635
    endloop
  endfacet
  facet normal 0 -1 0
    outer loop
      vertex -3.15 4.07454 1.35635
      vertex -2.75 4.07454 3.175
      vertex -3.15 4.07454 4.99365
    endloop
  endfacet
  facet normal 0 -1 0
    outer loop
      vertex 2.75 4.07454 3.175
      vertex 3.15 4.07454 4.99365
      vertex 2.75 4.07454 5.22459
    endloop
  endfacet
  facet normal 0 -1 0
    outer loop
      vertex 2.75 4.07454 3.175
      vertex 3.15 4.07454 1.35635
      vertex 3.15 4.07454 4.99365
    endloop
  endfacet
  facet normal 0 -1 0
    outer loop
      vertex -2.75 4.07454 3.175
      vertex -0.800738 4.07454 0
      vertex 2.75 4.07454 3.175
    endloop
  endfacet
  facet normal 0 -1 0
    outer loop
      vertex 0.800738 4.07454 0
      vertex 2.75 4.07454 3.175
      vertex -0.800738 4.07454 0
    endloop
  endfacet
  facet normal 0 -1 -0
    outer loop
      vertex 2.75 4.07454 3.175
      vertex 0.800738 4.07454 0
      vertex 3.15 4.07454 1.35635
    endloop
  endfacet
  facet normal -0.500001 0 0.866025
    outer loop
      vertex 0.800738 4.07454 0
      vertex 3.15 1.32545 1.35635
      vertex 3.15 4.07454 1.35635
    endloop
  endfacet
  facet normal -0.500001 0 0.866025
    outer loop
      vertex 3.15 1.32545 1.35635
      vertex 0.800738 4.07454 0
      vertex 0.800738 1.32545 0
    endloop
  endfacet
  facet normal 0.5 0 -0.866026
    outer loop
      vertex -3.15 1.32545 4.99365
      vertex -2.75 4.07454 5.22459
      vertex -2.75 1.32545 5.22459
    endloop
  endfacet
  facet normal 0.5 0 -0.866026
    outer loop
      vertex -2.75 4.07454 5.22459
      vertex -3.15 1.32545 4.99365
      vertex -3.15 4.07454 4.99365
    endloop
  endfacet
  facet normal 1 0 0
    outer loop
      vertex -2.75 4.3 30
      vertex -2.75 4.07454 5.22459
      vertex -2.75 4.3 3.175
    endloop
  endfacet
  facet normal 1 0 0
    outer loop
      vertex -2.75 4.3 30
      vertex -2.75 1.32545 5.22459
      vertex -2.75 4.07454 5.22459
    endloop
  endfacet
  facet normal 1 -0 0
    outer loop
      vertex -2.75 1.1 30
      vertex -2.75 1.32545 5.22459
      vertex -2.75 4.3 30
    endloop
  endfacet
  facet normal 1 0 0
    outer loop
      vertex -2.75 1.1 3.175
      vertex -2.75 1.32545 5.22459
      vertex -2.75 1.1 30
    endloop
  endfacet
  facet normal 1 0 0
    outer loop
      vertex -2.75 1.32545 5.22459
      vertex -2.75 1.1 3.175
      vertex -2.75 1.32545 3.175
    endloop
  endfacet
  facet normal 1 0 0
    outer loop
      vertex -2.75 4.3 3.175
      vertex -2.75 4.07454 5.22459
      vertex -2.75 4.07454 3.175
    endloop
  endfacet
  facet normal -1 0 0
    outer loop
      vertex 2.75 1.32545 3.175
      vertex 2.75 1.1 3.175
      vertex 2.75 1.32545 5.22459
    endloop
  endfacet
  facet normal -1 0 0
    outer loop
      vertex 2.75 4.07454 5.22459
      vertex 2.75 4.3 3.175
      vertex 2.75 4.07454 3.175
    endloop
  endfacet
  facet normal -1 0 0
    outer loop
      vertex 2.75 4.3 3.175
      vertex 2.75 4.07454 5.22459
      vertex 2.75 4.3 30
    endloop
  endfacet
  facet normal -1 0 0
    outer loop
      vertex 2.75 1.32545 5.22459
      vertex 2.75 4.3 30
      vertex 2.75 4.07454 5.22459
    endloop
  endfacet
  facet normal -1 0 0
    outer loop
      vertex 2.75 1.32545 5.22459
      vertex 2.75 1.1 30
      vertex 2.75 4.3 30
    endloop
  endfacet
  facet normal -1 0 0
    outer loop
      vertex 2.75 1.1 30
      vertex 2.75 1.32545 5.22459
      vertex 2.75 1.1 3.175
    endloop
  endfacet
  facet normal -0 0 1
    outer loop
      vertex -2.75 1.32545 3.175
      vertex 2.75 1.1 3.175
      vertex 2.75 1.32545 3.175
    endloop
  endfacet
  facet normal 0 0 1
    outer loop
      vertex 2.75 1.1 3.175
      vertex -2.75 1.32545 3.175
      vertex -2.75 1.1 3.175
    endloop
  endfacet
  facet normal -0 0 1
    outer loop
      vertex -2.75 4.3 3.175
      vertex 2.75 4.07454 3.175
      vertex 2.75 4.3 3.175
    endloop
  endfacet
  facet normal 0 0 1
    outer loop
      vertex 2.75 4.07454 3.175
      vertex -2.75 4.3 3.175
      vertex -2.75 4.07454 3.175
    endloop
  endfacet
  facet normal 0 1 0
    outer loop
      vertex 2.75 1.1 30
      vertex 1.7 1.1 26.5
      vertex -2.75 1.1 30
    endloop
  endfacet
  facet normal 0 1 -0
    outer loop
      vertex 2.75 1.1 3.175
      vertex 1.7 1.1 26.5
      vertex 2.75 1.1 30
    endloop
  endfacet
  facet normal 0 1 0
    outer loop
      vertex 1.7 1.1 3.5
      vertex 2.75 1.1 3.175
      vertex -1.7 1.1 3.5
    endloop
  endfacet
  facet normal 0 1 0
    outer loop
      vertex 1.7 1.1 26.5
      vertex 2.75 1.1 3.175
      vertex 1.7 1.1 3.5
    endloop
  endfacet
  facet normal 0 1 -0
    outer loop
      vertex -1.7 1.1 26.5
      vertex -2.75 1.1 30
      vertex 1.7 1.1 26.5
    endloop
  endfacet
  facet normal 0 1 0
    outer loop
      vertex -2.75 1.1 3.175
      vertex -1.7 1.1 26.5
      vertex -1.7 1.1 3.5
    endloop
  endfacet
  facet normal 0 1 0
    outer loop
      vertex -1.7 1.1 26.5
      vertex -2.75 1.1 3.175
      vertex -2.75 1.1 30
    endloop
  endfacet
  facet normal 0 1 0
    outer loop
      vertex -2.75 1.1 3.175
      vertex -1.7 1.1 3.5
      vertex 2.75 1.1 3.175
    endloop
  endfacet
  facet normal 0 -1 0
    outer loop
      vertex -2.75 4.3 30
      vertex -1.7 4.3 26.5
      vertex 2.75 4.3 30
    endloop
  endfacet
  facet normal 0 -1 0
    outer loop
      vertex -2.75 4.3 3.175
      vertex -1.7 4.3 26.5
      vertex -2.75 4.3 30
    endloop
  endfacet
  facet normal 0 -1 -0
    outer loop
      vertex -1.7 4.3 3.5
      vertex -2.75 4.3 3.175
      vertex 1.7 4.3 3.5
    endloop
  endfacet
  facet normal 0 -1 -0
    outer loop
      vertex -1.7 4.3 26.5
      vertex -2.75 4.3 3.175
      vertex -1.7 4.3 3.5
    endloop
  endfacet
  facet normal 0 -1 0
    outer loop
      vertex 1.7 4.3 26.5
      vertex 2.75 4.3 30
      vertex -1.7 4.3 26.5
    endloop
  endfacet
  facet normal 0 -1 0
    outer loop
      vertex 2.75 4.3 3.175
      vertex 1.7 4.3 26.5
      vertex 1.7 4.3 3.5
    endloop
  endfacet
  facet normal 0 -1 0
    outer loop
      vertex 1.7 4.3 26.5
      vertex 2.75 4.3 3.175
      vertex 2.75 4.3 30
    endloop
  endfacet
  facet normal 0 -1 0
    outer loop
      vertex 2.75 4.3 3.175
      vertex 1.7 4.3 3.5
      vertex -2.75 4.3 3.175
    endloop
  endfacet
endsolid OpenSCAD_Model
