solid OpenSCAD_Model
  facet normal -0.996195 0 0.0871548
    outer loop
      vertex 0 0 -2
      vertex 0.0607681 10 -1.30541
      vertex 0 10 -2
    endloop
  endfacet
  facet normal -0.996195 0 0.0871548
    outer loop
      vertex 0.0607681 10 -1.30541
      vertex 0 0 -2
      vertex 0.0607681 0 -1.30541
    endloop
  endfacet
  facet normal -0.965926 0 0.258818
    outer loop
      vertex 0.0607681 0 -1.30541
      vertex 0.241229 10 -0.631919
      vertex 0.0607681 10 -1.30541
    endloop
  endfacet
  facet normal -0.965926 0 0.258818
    outer loop
      vertex 0.241229 10 -0.631919
      vertex 0.0607681 0 -1.30541
      vertex 0.241229 0 -0.631919
    endloop
  endfacet
  facet normal -0.819152 0 0.573577
    outer loop
      vertex 0.535898 0 0
      vertex 0.935822 10 0.57115
      vertex 0.535898 10 0
    endloop
  endfacet
  facet normal -0.819152 0 0.573577
    outer loop
      vertex 0.935822 10 0.57115
      vertex 0.535898 0 0
      vertex 0.935822 0 0.57115
    endloop
  endfacet
  facet normal -0.258818 0 0.965926
    outer loop
      vertex 2.63192 10 1.75877
      vertex 3.30541 0 1.93923
      vertex 3.30541 10 1.93923
    endloop
  endfacet
  facet normal -0.258818 0 0.965926
    outer loop
      vertex 3.30541 0 1.93923
      vertex 2.63192 10 1.75877
      vertex 2.63192 0 1.75877
    endloop
  endfacet
  facet normal -0.573573 0 0.819154
    outer loop
      vertex 1.42885 10 1.06418
      vertex 2 0 1.4641
      vertex 2 10 1.4641
    endloop
  endfacet
  facet normal -0.573573 0 0.819154
    outer loop
      vertex 2 0 1.4641
      vertex 1.42885 10 1.06418
      vertex 1.42885 0 1.06418
    endloop
  endfacet
  facet normal 0 -1 0
    outer loop
      vertex 3.30541 0 1.93923
      vertex 3.6527 0 -0.0303841
      vertex 4 0 0
    endloop
  endfacet
  facet normal 0 -1 0
    outer loop
      vertex 0.935822 0 0.57115
      vertex 3.31596 0 -0.120614
      vertex 3.6527 0 -0.0303841
    endloop
  endfacet
  facet normal 0 -1 0
    outer loop
      vertex 0.935822 0 0.57115
      vertex 3 0 -0.267949
      vertex 3.31596 0 -0.120614
    endloop
  endfacet
  facet normal 0 -1 0
    outer loop
      vertex 0.935822 0 0.57115
      vertex 2.71442 0 -0.467911
      vertex 3 0 -0.267949
    endloop
  endfacet
  facet normal 0 -1 0
    outer loop
      vertex 2.26795 0 -1
      vertex 0.535898 0 0
      vertex 0.241229 0 -0.631919
    endloop
  endfacet
  facet normal 0 -1 0
    outer loop
      vertex 0.935822 0 0.57115
      vertex 2.46791 0 -0.714424
      vertex 2.71442 0 -0.467911
    endloop
  endfacet
  facet normal 0 -1 0
    outer loop
      vertex 0.535898 0 0
      vertex 2.26795 0 -1
      vertex 2.46791 0 -0.714424
    endloop
  endfacet
  facet normal 0 -1 0
    outer loop
      vertex 2.12061 0 -1.31596
      vertex 0.241229 0 -0.631919
      vertex 0.0607681 0 -1.30541
    endloop
  endfacet
  facet normal 0 -1 0
    outer loop
      vertex 0.241229 0 -0.631919
      vertex 2.12061 0 -1.31596
      vertex 2.26795 0 -1
    endloop
  endfacet
  facet normal 0 -1 0
    outer loop
      vertex 0.0607681 0 -1.30541
      vertex 2.03038 0 -1.6527
      vertex 2.12061 0 -1.31596
    endloop
  endfacet
  facet normal 0 -1 0
    outer loop
      vertex 0 0 -2
      vertex 2.03038 0 -1.6527
      vertex 0.0607681 0 -1.30541
    endloop
  endfacet
  facet normal 0 -1 0
    outer loop
      vertex 0 0 -2
      vertex 2 0 -2
      vertex 2.03038 0 -1.6527
    endloop
  endfacet
  facet normal 0 -1 0
    outer loop
      vertex 0 0 -13
      vertex 2 0 -2
      vertex 0 0 -2
    endloop
  endfacet
  facet normal 0 -1 -0
    outer loop
      vertex 2 0 -2
      vertex 0 0 -13
      vertex 2 0 -13
    endloop
  endfacet
  facet normal 0 -1 0
    outer loop
      vertex 4 0 0
      vertex 4 0 2
      vertex 3.30541 0 1.93923
    endloop
  endfacet
  facet normal 0 -1 0
    outer loop
      vertex 3.6527 0 -0.0303841
      vertex 3.30541 0 1.93923
      vertex 2.63192 0 1.75877
    endloop
  endfacet
  facet normal 0 -1 0
    outer loop
      vertex 3.6527 0 -0.0303841
      vertex 2.63192 0 1.75877
      vertex 2 0 1.4641
    endloop
  endfacet
  facet normal 0 -1 0
    outer loop
      vertex 3.6527 0 -0.0303841
      vertex 2 0 1.4641
      vertex 1.42885 0 1.06418
    endloop
  endfacet
  facet normal 0 -1 0
    outer loop
      vertex 3.6527 0 -0.0303841
      vertex 1.42885 0 1.06418
      vertex 0.935822 0 0.57115
    endloop
  endfacet
  facet normal 0 -1 0
    outer loop
      vertex 2.46791 0 -0.714424
      vertex 0.935822 0 0.57115
      vertex 0.535898 0 0
    endloop
  endfacet
  facet normal 0 -1 0
    outer loop
      vertex 4 0 2
      vertex 4 0 0
      vertex 15 0 2
    endloop
  endfacet
  facet normal 0 -1 -0
    outer loop
      vertex 15 0 2
      vertex 4 0 0
      vertex 15 0 0
    endloop
  endfacet
  facet normal 0 1 0
    outer loop
      vertex 4 10 0
      vertex 4 10 2
      vertex 15 10 2
    endloop
  endfacet
  facet normal 0 1 0
    outer loop
      vertex 4 10 2
      vertex 4 10 0
      vertex 3.30541 10 1.93923
    endloop
  endfacet
  facet normal 0 1 -0
    outer loop
      vertex 3.6527 10 -0.0303841
      vertex 3.30541 10 1.93923
      vertex 4 10 0
    endloop
  endfacet
  facet normal 0 1 0
    outer loop
      vertex 3.30541 10 1.93923
      vertex 3.6527 10 -0.0303841
      vertex 2.63192 10 1.75877
    endloop
  endfacet
  facet normal 0 1 -0
    outer loop
      vertex 3.31596 10 -0.120614
      vertex 2.63192 10 1.75877
      vertex 3.6527 10 -0.0303841
    endloop
  endfacet
  facet normal 0 1 0
    outer loop
      vertex 4 10 0
      vertex 15 10 2
      vertex 15 10 0
    endloop
  endfacet
  facet normal 0 1 0
    outer loop
      vertex 2.63192 10 1.75877
      vertex 3.31596 10 -0.120614
      vertex 2 10 1.4641
    endloop
  endfacet
  facet normal 0 1 -0
    outer loop
      vertex 3 10 -0.267949
      vertex 2 10 1.4641
      vertex 3.31596 10 -0.120614
    endloop
  endfacet
  facet normal 0 1 0
    outer loop
      vertex 2 10 1.4641
      vertex 3 10 -0.267949
      vertex 1.42885 10 1.06418
    endloop
  endfacet
  facet normal 0 1 -0
    outer loop
      vertex 2.71442 10 -0.467911
      vertex 1.42885 10 1.06418
      vertex 3 10 -0.267949
    endloop
  endfacet
  facet normal 0 1 0
    outer loop
      vertex 1.42885 10 1.06418
      vertex 2.71442 10 -0.467911
      vertex 0.935822 10 0.57115
    endloop
  endfacet
  facet normal 0 1 -0
    outer loop
      vertex 2.46791 10 -0.714424
      vertex 0.935822 10 0.57115
      vertex 2.71442 10 -0.467911
    endloop
  endfacet
  facet normal 0 1 0
    outer loop
      vertex 0.935822 10 0.57115
      vertex 2.46791 10 -0.714424
      vertex 0.535898 10 0
    endloop
  endfacet
  facet normal 0 1 -0
    outer loop
      vertex 2.26795 10 -1
      vertex 0.535898 10 0
      vertex 2.46791 10 -0.714424
    endloop
  endfacet
  facet normal 0 1 0
    outer loop
      vertex 0.535898 10 0
      vertex 2.26795 10 -1
      vertex 0.241229 10 -0.631919
    endloop
  endfacet
  facet normal 0 1 -0
    outer loop
      vertex 2.12061 10 -1.31596
      vertex 0.241229 10 -0.631919
      vertex 2.26795 10 -1
    endloop
  endfacet
  facet normal 0 1 0
    outer loop
      vertex 0.241229 10 -0.631919
      vertex 2.12061 10 -1.31596
      vertex 0.0607681 10 -1.30541
    endloop
  endfacet
  facet normal 0 1 -0
    outer loop
      vertex 2.03038 10 -1.6527
      vertex 0.0607681 10 -1.30541
      vertex 2.12061 10 -1.31596
    endloop
  endfacet
  facet normal 0 1 -0
    outer loop
      vertex 2 10 -2
      vertex 0.0607681 10 -1.30541
      vertex 2.03038 10 -1.6527
    endloop
  endfacet
  facet normal 0 1 0
    outer loop
      vertex 2 10 -2
      vertex 0 10 -2
      vertex 0.0607681 10 -1.30541
    endloop
  endfacet
  facet normal 0 1 -0
    outer loop
      vertex 2 10 -13
      vertex 0 10 -2
      vertex 2 10 -2
    endloop
  endfacet
  facet normal 0 1 0
    outer loop
      vertex 0 10 -2
      vertex 2 10 -13
      vertex 0 10 -13
    endloop
  endfacet
  facet normal -0.906308 0 0.422619
    outer loop
      vertex 0.241229 0 -0.631919
      vertex 0.535898 10 0
      vertex 0.241229 10 -0.631919
    endloop
  endfacet
  facet normal -0.906308 0 0.422619
    outer loop
      vertex 0.535898 10 0
      vertex 0.241229 0 -0.631919
      vertex 0.535898 0 0
    endloop
  endfacet
  facet normal -0.707108 0 0.707105
    outer loop
      vertex 0.935822 0 0.57115
      vertex 1.42885 10 1.06418
      vertex 0.935822 10 0.57115
    endloop
  endfacet
  facet normal -0.707108 0 0.707105
    outer loop
      vertex 1.42885 10 1.06418
      vertex 0.935822 0 0.57115
      vertex 1.42885 0 1.06418
    endloop
  endfacet
  facet normal -0.0871575 0 0.996195
    outer loop
      vertex 3.30541 10 1.93923
      vertex 4 6.46987 2
      vertex 4 10 2
    endloop
  endfacet
  facet normal -0.0869904 3.31386e-05 0.996209
    outer loop
      vertex 4 6.46987 2
      vertex 3.30541 10 1.93923
      vertex 3.9764 6.44627 1.99794
    endloop
  endfacet
  facet normal -0.0871872 -4.31006e-06 0.996192
    outer loop
      vertex 3.9764 6.44627 1.99794
      vertex 3.30541 10 1.93923
      vertex 3.75144 6.125 1.97825
    endloop
  endfacet
  facet normal -0.0871487 1.61715e-07 0.996195
    outer loop
      vertex 3.75144 6.125 1.97825
      vertex 3.30541 10 1.93923
      vertex 3.58569 5.76954 1.96375
    endloop
  endfacet
  facet normal -0.0871479 2.31752e-07 0.996195
    outer loop
      vertex 3.48418 5.39071 1.95487
      vertex 3.30541 10 1.93923
      vertex 3.45 5 1.95188
    endloop
  endfacet
  facet normal -0.0871472 2.58157e-07 0.996195
    outer loop
      vertex 3.58569 5.76954 1.96375
      vertex 3.30541 10 1.93923
      vertex 3.48418 5.39071 1.95487
    endloop
  endfacet
  facet normal -0.0869904 -3.31386e-05 0.996209
    outer loop
      vertex 3.30541 0 1.93923
      vertex 4 3.53013 2
      vertex 3.9764 3.55373 1.99794
    endloop
  endfacet
  facet normal -0.0871872 4.31006e-06 0.996192
    outer loop
      vertex 3.30541 0 1.93923
      vertex 3.9764 3.55373 1.99794
      vertex 3.75144 3.875 1.97825
    endloop
  endfacet
  facet normal -0.0871487 -1.61715e-07 0.996195
    outer loop
      vertex 3.30541 0 1.93923
      vertex 3.75144 3.875 1.97825
      vertex 3.58569 4.23045 1.96375
    endloop
  endfacet
  facet normal -0.0871472 -2.58156e-07 0.996195
    outer loop
      vertex 3.30541 0 1.93923
      vertex 3.58569 4.23045 1.96375
      vertex 3.48418 4.60929 1.95487
    endloop
  endfacet
  facet normal -0.0871575 0 0.996195
    outer loop
      vertex 4 3.53013 2
      vertex 3.30541 0 1.93923
      vertex 4 0 2
    endloop
  endfacet
  facet normal -0.0871479 -2.31752e-07 0.996195
    outer loop
      vertex 3.45 5 1.95188
      vertex 3.30541 0 1.93923
      vertex 3.48418 4.60929 1.95487
    endloop
  endfacet
  facet normal -0.0871558 0 0.996195
    outer loop
      vertex 3.30541 0 1.93923
      vertex 3.45 5 1.95188
      vertex 3.30541 10 1.93923
    endloop
  endfacet
  facet normal -0.422619 0 0.906307
    outer loop
      vertex 2 10 1.4641
      vertex 2.63192 0 1.75877
      vertex 2.63192 10 1.75877
    endloop
  endfacet
  facet normal -0.422619 0 0.906307
    outer loop
      vertex 2.63192 0 1.75877
      vertex 2 10 1.4641
      vertex 2 0 1.4641
    endloop
  endfacet
  facet normal 0.996196 0 -0.087142
    outer loop
      vertex 2.03038 0 -1.6527
      vertex 2 10 -2
      vertex 2.03038 10 -1.6527
    endloop
  endfacet
  facet normal 0.996196 0 -0.087142
    outer loop
      vertex 2 10 -2
      vertex 2.03038 0 -1.6527
      vertex 2 0 -2
    endloop
  endfacet
  facet normal 0.965925 0 -0.258821
    outer loop
      vertex 2.12061 0 -1.31596
      vertex 2.03038 10 -1.6527
      vertex 2.12061 10 -1.31596
    endloop
  endfacet
  facet normal 0.965925 0 -0.258821
    outer loop
      vertex 2.03038 10 -1.6527
      vertex 2.12061 0 -1.31596
      vertex 2.03038 0 -1.6527
    endloop
  endfacet
  facet normal 0.819155 0 -0.573572
    outer loop
      vertex 2.46791 0 -0.714424
      vertex 2.26795 10 -1
      vertex 2.46791 10 -0.714424
    endloop
  endfacet
  facet normal 0.819155 0 -0.573572
    outer loop
      vertex 2.26795 10 -1
      vertex 2.46791 0 -0.714424
      vertex 2.26795 0 -1
    endloop
  endfacet
  facet normal 0.258821 0 -0.965925
    outer loop
      vertex 3.31596 0 -0.120614
      vertex 3.6527 4.08675 -0.0303841
      vertex 3.6527 0 -0.0303841
    endloop
  endfacet
  facet normal 0.258824 -2.90216e-07 -0.965924
    outer loop
      vertex 3.6527 4.08675 -0.0303841
      vertex 3.31596 0 -0.120614
      vertex 3.58569 4.23045 -0.0483398
    endloop
  endfacet
  facet normal 0.258816 2.55826e-07 -0.965927
    outer loop
      vertex 3.58569 4.23045 -0.0483398
      vertex 3.31596 0 -0.120614
      vertex 3.48418 4.60929 -0.0755389
    endloop
  endfacet
  facet normal 0.258833 -4.05394e-07 -0.965922
    outer loop
      vertex 3.48418 4.60929 -0.0755389
      vertex 3.31596 0 -0.120614
      vertex 3.45 5 -0.0846981
    endloop
  endfacet
  facet normal 0.258824 2.90213e-07 -0.965924
    outer loop
      vertex 3.31596 10 -0.120614
      vertex 3.6527 5.91325 -0.0303841
      vertex 3.58569 5.76954 -0.0483398
    endloop
  endfacet
  facet normal 0.258816 -2.55827e-07 -0.965927
    outer loop
      vertex 3.31596 10 -0.120614
      vertex 3.58569 5.76954 -0.0483398
      vertex 3.48418 5.39071 -0.0755389
    endloop
  endfacet
  facet normal 0.258833 4.05394e-07 -0.965922
    outer loop
      vertex 3.31596 10 -0.120614
      vertex 3.48418 5.39071 -0.0755389
      vertex 3.45 5 -0.0846981
    endloop
  endfacet
  facet normal 0.258821 0 -0.965925
    outer loop
      vertex 3.6527 5.91325 -0.0303841
      vertex 3.31596 10 -0.120614
      vertex 3.6527 10 -0.0303841
    endloop
  endfacet
  facet normal 0.258819 0 -0.965926
    outer loop
      vertex 3.31596 10 -0.120614
      vertex 3.45 5 -0.0846981
      vertex 3.31596 0 -0.120614
    endloop
  endfacet
  facet normal 0.57357 0 -0.819156
    outer loop
      vertex 2.71442 0 -0.467911
      vertex 3 10 -0.267949
      vertex 3 0 -0.267949
    endloop
  endfacet
  facet normal 0.57357 0 -0.819156
    outer loop
      vertex 3 10 -0.267949
      vertex 2.71442 0 -0.467911
      vertex 2.71442 10 -0.467911
    endloop
  endfacet
  facet normal 0.906302 0 -0.422631
    outer loop
      vertex 2.26795 0 -1
      vertex 2.12061 10 -1.31596
      vertex 2.26795 10 -1
    endloop
  endfacet
  facet normal 0.906302 0 -0.422631
    outer loop
      vertex 2.12061 10 -1.31596
      vertex 2.26795 0 -1
      vertex 2.12061 0 -1.31596
    endloop
  endfacet
  facet normal 0.707111 0 -0.707102
    outer loop
      vertex 2.71442 0 -0.467911
      vertex 2.46791 10 -0.714424
      vertex 2.71442 10 -0.467911
    endloop
  endfacet
  facet normal 0.707111 0 -0.707102
    outer loop
      vertex 2.46791 10 -0.714424
      vertex 2.71442 0 -0.467911
      vertex 2.46791 0 -0.714424
    endloop
  endfacet
  facet normal 0.0871537 0 -0.996195
    outer loop
      vertex 3.6527 0 -0.0303841
      vertex 4 3.53013 0
      vertex 4 0 0
    endloop
  endfacet
  facet normal 0.0871562 -2.49464e-07 -0.996195
    outer loop
      vertex 4 3.53013 0
      vertex 3.6527 0 -0.0303841
      vertex 3.9764 3.55373 -0.00206475
    endloop
  endfacet
  facet normal 0.0871535 -2.79967e-09 -0.996195
    outer loop
      vertex 3.9764 3.55373 -0.00206475
      vertex 3.6527 0 -0.0303841
      vertex 3.75144 3.875 -0.0217457
    endloop
  endfacet
  facet normal 0.0871534 0 -0.996195
    outer loop
      vertex 3.75144 3.875 -0.0217457
      vertex 3.6527 0 -0.0303841
      vertex 3.6527 4.08675 -0.0303841
    endloop
  endfacet
  facet normal 0.0871562 2.49464e-07 -0.996195
    outer loop
      vertex 3.6527 10 -0.0303841
      vertex 4 6.46987 0
      vertex 3.9764 6.44627 -0.00206475
    endloop
  endfacet
  facet normal 0.0871535 2.79967e-09 -0.996195
    outer loop
      vertex 3.6527 10 -0.0303841
      vertex 3.9764 6.44627 -0.00206475
      vertex 3.75144 6.125 -0.0217457
    endloop
  endfacet
  facet normal 0.0871534 0 -0.996195
    outer loop
      vertex 3.6527 10 -0.0303841
      vertex 3.75144 6.125 -0.0217457
      vertex 3.6527 5.91325 -0.0303841
    endloop
  endfacet
  facet normal 0.0871537 0 -0.996195
    outer loop
      vertex 4 6.46987 0
      vertex 3.6527 10 -0.0303841
      vertex 4 10 0
    endloop
  endfacet
  facet normal 0.422619 0 -0.906307
    outer loop
      vertex 3 0 -0.267949
      vertex 3.31596 10 -0.120614
      vertex 3.31596 0 -0.120614
    endloop
  endfacet
  facet normal 0.422619 0 -0.906307
    outer loop
      vertex 3.31596 10 -0.120614
      vertex 3 0 -0.267949
      vertex 3 10 -0.267949
    endloop
  endfacet
  facet normal 0 0 -1
    outer loop
      vertex 15 0 0
      vertex 7.95 5 0
      vertex 15 10 0
    endloop
  endfacet
  facet normal 0 0 -1
    outer loop
      vertex 15 0 0
      vertex 7.91582 4.60929 0
      vertex 7.95 5 0
    endloop
  endfacet
  facet normal 0 0 -1
    outer loop
      vertex 15 0 0
      vertex 7.81431 4.23045 0
      vertex 7.91582 4.60929 0
    endloop
  endfacet
  facet normal 0 0 -1
    outer loop
      vertex 15 0 0
      vertex 7.64856 3.875 0
      vertex 7.81431 4.23045 0
    endloop
  endfacet
  facet normal 0 0 -1
    outer loop
      vertex 15 0 0
      vertex 7.4236 3.55373 0
      vertex 7.64856 3.875 0
    endloop
  endfacet
  facet normal 0 0 -1
    outer loop
      vertex 15 0 0
      vertex 7.14627 3.2764 0
      vertex 7.4236 3.55373 0
    endloop
  endfacet
  facet normal 0 0 -1
    outer loop
      vertex 15 0 0
      vertex 6.825 3.05144 0
      vertex 7.14627 3.2764 0
    endloop
  endfacet
  facet normal 0 0 -1
    outer loop
      vertex 4 0 0
      vertex 6.825 3.05144 0
      vertex 15 0 0
    endloop
  endfacet
  facet normal 0 0 -1
    outer loop
      vertex 6.825 3.05144 0
      vertex 4 0 0
      vertex 6.46954 2.88569 0
    endloop
  endfacet
  facet normal 0 0 -1
    outer loop
      vertex 6.46954 2.88569 0
      vertex 4 0 0
      vertex 6.09071 2.78418 0
    endloop
  endfacet
  facet normal 0 0 -1
    outer loop
      vertex 6.09071 2.78418 0
      vertex 4 0 0
      vertex 5.7 2.75 0
    endloop
  endfacet
  facet normal -0 0 -1
    outer loop
      vertex 5.7 2.75 0
      vertex 4 0 0
      vertex 5.30929 2.78418 0
    endloop
  endfacet
  facet normal -0 0 -1
    outer loop
      vertex 5.30929 2.78418 0
      vertex 4 0 0
      vertex 4.93045 2.88569 0
    endloop
  endfacet
  facet normal 0 0 -1
    outer loop
      vertex 4 0 0
      vertex 4.575 3.05144 0
      vertex 4.93045 2.88569 0
    endloop
  endfacet
  facet normal 0 0 -1
    outer loop
      vertex 4 0 0
      vertex 4.25373 3.2764 0
      vertex 4.575 3.05144 0
    endloop
  endfacet
  facet normal -0 0 -1
    outer loop
      vertex 4.25373 3.2764 0
      vertex 4 0 0
      vertex 4 3.53013 0
    endloop
  endfacet
  facet normal 0 0 -1
    outer loop
      vertex 7.91582 5.39071 0
      vertex 15 10 0
      vertex 7.95 5 0
    endloop
  endfacet
  facet normal 0 0 -1
    outer loop
      vertex 7.81431 5.76954 0
      vertex 15 10 0
      vertex 7.91582 5.39071 0
    endloop
  endfacet
  facet normal 0 0 -1
    outer loop
      vertex 7.64856 6.125 0
      vertex 15 10 0
      vertex 7.81431 5.76954 0
    endloop
  endfacet
  facet normal 0 0 -1
    outer loop
      vertex 7.4236 6.44627 0
      vertex 15 10 0
      vertex 7.64856 6.125 0
    endloop
  endfacet
  facet normal 0 0 -1
    outer loop
      vertex 7.14627 6.7236 0
      vertex 15 10 0
      vertex 7.4236 6.44627 0
    endloop
  endfacet
  facet normal 0 0 -1
    outer loop
      vertex 6.825 6.94856 0
      vertex 15 10 0
      vertex 7.14627 6.7236 0
    endloop
  endfacet
  facet normal 0 0 -1
    outer loop
      vertex 4 10 0
      vertex 6.825 6.94856 0
      vertex 6.46954 7.11431 0
    endloop
  endfacet
  facet normal 0 0 -1
    outer loop
      vertex 4 10 0
      vertex 6.46954 7.11431 0
      vertex 6.09071 7.21582 0
    endloop
  endfacet
  facet normal 0 0 -1
    outer loop
      vertex 4 10 0
      vertex 6.09071 7.21582 0
      vertex 5.7 7.25 0
    endloop
  endfacet
  facet normal 0 0 -1
    outer loop
      vertex 4 10 0
      vertex 5.7 7.25 0
      vertex 5.30929 7.21582 0
    endloop
  endfacet
  facet normal 0 0 -1
    outer loop
      vertex 4 10 0
      vertex 5.30929 7.21582 0
      vertex 4.93045 7.11431 0
    endloop
  endfacet
  facet normal 0 0 -1
    outer loop
      vertex 6.825 6.94856 0
      vertex 4 10 0
      vertex 15 10 0
    endloop
  endfacet
  facet normal 0 0 -1
    outer loop
      vertex 4.575 6.94856 0
      vertex 4 10 0
      vertex 4.93045 7.11431 0
    endloop
  endfacet
  facet normal 0 0 -1
    outer loop
      vertex 4.25373 6.7236 0
      vertex 4 10 0
      vertex 4.575 6.94856 0
    endloop
  endfacet
  facet normal 0 0 -1
    outer loop
      vertex 4 10 0
      vertex 4.25373 6.7236 0
      vertex 4 6.46987 0
    endloop
  endfacet
  facet normal 1 -0 0
    outer loop
      vertex 2 0 -2
      vertex 2 10 -13
      vertex 2 10 -2
    endloop
  endfacet
  facet normal 1 0 0
    outer loop
      vertex 2 10 -13
      vertex 2 0 -2
      vertex 2 0 -13
    endloop
  endfacet
  facet normal 0 0 1
    outer loop
      vertex 15 10 2
      vertex 7.95 5 2
      vertex 15 0 2
    endloop
  endfacet
  facet normal 0 0 1
    outer loop
      vertex 15 10 2
      vertex 7.91582 5.39071 2
      vertex 7.95 5 2
    endloop
  endfacet
  facet normal 0 0 1
    outer loop
      vertex 15 10 2
      vertex 7.81431 5.76954 2
      vertex 7.91582 5.39071 2
    endloop
  endfacet
  facet normal 0 0 1
    outer loop
      vertex 15 10 2
      vertex 7.64856 6.125 2
      vertex 7.81431 5.76954 2
    endloop
  endfacet
  facet normal 0 0 1
    outer loop
      vertex 15 10 2
      vertex 7.4236 6.44627 2
      vertex 7.64856 6.125 2
    endloop
  endfacet
  facet normal 0 0 1
    outer loop
      vertex 15 10 2
      vertex 7.14627 6.7236 2
      vertex 7.4236 6.44627 2
    endloop
  endfacet
  facet normal 0 0 1
    outer loop
      vertex 15 10 2
      vertex 6.825 6.94856 2
      vertex 7.14627 6.7236 2
    endloop
  endfacet
  facet normal -0 0 1
    outer loop
      vertex 4 10 2
      vertex 6.825 6.94856 2
      vertex 15 10 2
    endloop
  endfacet
  facet normal 0 0 1
    outer loop
      vertex 6.825 6.94856 2
      vertex 4 10 2
      vertex 6.46954 7.11431 2
    endloop
  endfacet
  facet normal 0 0 1
    outer loop
      vertex 6.46954 7.11431 2
      vertex 4 10 2
      vertex 6.09071 7.21582 2
    endloop
  endfacet
  facet normal 0 0 1
    outer loop
      vertex 6.09071 7.21582 2
      vertex 4 10 2
      vertex 5.7 7.25 2
    endloop
  endfacet
  facet normal 0 0 1
    outer loop
      vertex 5.7 7.25 2
      vertex 4 10 2
      vertex 5.30929 7.21582 2
    endloop
  endfacet
  facet normal 0 0 1
    outer loop
      vertex 5.30929 7.21582 2
      vertex 4 10 2
      vertex 4.93045 7.11431 2
    endloop
  endfacet
  facet normal 0 0 1
    outer loop
      vertex 4 10 2
      vertex 4.575 6.94856 2
      vertex 4.93045 7.11431 2
    endloop
  endfacet
  facet normal 0 0 1
    outer loop
      vertex 4 10 2
      vertex 4.25373 6.7236 2
      vertex 4.575 6.94856 2
    endloop
  endfacet
  facet normal 0 0 1
    outer loop
      vertex 4.25373 6.7236 2
      vertex 4 10 2
      vertex 4 6.46987 2
    endloop
  endfacet
  facet normal -0 0 1
    outer loop
      vertex 7.91582 4.60929 2
      vertex 15 0 2
      vertex 7.95 5 2
    endloop
  endfacet
  facet normal -0 0 1
    outer loop
      vertex 7.81431 4.23045 2
      vertex 15 0 2
      vertex 7.91582 4.60929 2
    endloop
  endfacet
  facet normal -0 0 1
    outer loop
      vertex 7.64856 3.875 2
      vertex 15 0 2
      vertex 7.81431 4.23045 2
    endloop
  endfacet
  facet normal -0 0 1
    outer loop
      vertex 7.4236 3.55373 2
      vertex 15 0 2
      vertex 7.64856 3.875 2
    endloop
  endfacet
  facet normal -0 0 1
    outer loop
      vertex 7.14627 3.2764 2
      vertex 15 0 2
      vertex 7.4236 3.55373 2
    endloop
  endfacet
  facet normal -0 0 1
    outer loop
      vertex 6.825 3.05144 2
      vertex 15 0 2
      vertex 7.14627 3.2764 2
    endloop
  endfacet
  facet normal 0 0 1
    outer loop
      vertex 4 0 2
      vertex 6.825 3.05144 2
      vertex 6.46954 2.88569 2
    endloop
  endfacet
  facet normal 0 0 1
    outer loop
      vertex 4 0 2
      vertex 6.46954 2.88569 2
      vertex 6.09071 2.78418 2
    endloop
  endfacet
  facet normal 0 0 1
    outer loop
      vertex 4 0 2
      vertex 6.09071 2.78418 2
      vertex 5.7 2.75 2
    endloop
  endfacet
  facet normal 0 0 1
    outer loop
      vertex 4 0 2
      vertex 5.7 2.75 2
      vertex 5.30929 2.78418 2
    endloop
  endfacet
  facet normal 0 0 1
    outer loop
      vertex 4 0 2
      vertex 5.30929 2.78418 2
      vertex 4.93045 2.88569 2
    endloop
  endfacet
  facet normal 0 0 1
    outer loop
      vertex 6.825 3.05144 2
      vertex 4 0 2
      vertex 15 0 2
    endloop
  endfacet
  facet normal 0 0 1
    outer loop
      vertex 4.575 3.05144 2
      vertex 4 0 2
      vertex 4.93045 2.88569 2
    endloop
  endfacet
  facet normal 0 0 1
    outer loop
      vertex 4.25373 3.2764 2
      vertex 4 0 2
      vertex 4.575 3.05144 2
    endloop
  endfacet
  facet normal 0 0 1
    outer loop
      vertex 4 0 2
      vertex 4.25373 3.2764 2
      vertex 4 3.53013 2
    endloop
  endfacet
  facet normal 1 -0 0
    outer loop
      vertex 15 0 2
      vertex 15 10 0
      vertex 15 10 2
    endloop
  endfacet
  facet normal 1 0 0
    outer loop
      vertex 15 10 0
      vertex 15 0 2
      vertex 15 0 0
    endloop
  endfacet
  facet normal -0.996195 -0.0871489 0
    outer loop
      vertex 7.95 5 0
      vertex 7.91582 5.39071 2
      vertex 7.91582 5.39071 0
    endloop
  endfacet
  facet normal -0.996195 -0.0871489 0
    outer loop
      vertex 7.91582 5.39071 2
      vertex 7.95 5 0
      vertex 7.95 5 2
    endloop
  endfacet
  facet normal 0.0871489 -0.996195 0
    outer loop
      vertex 5.30929 7.21582 0
      vertex 5.7 7.25 2
      vertex 5.30929 7.21582 2
    endloop
  endfacet
  facet normal 0.0871489 -0.996195 0
    outer loop
      vertex 5.7 7.25 2
      vertex 5.30929 7.21582 0
      vertex 5.7 7.25 0
    endloop
  endfacet
  facet normal -0.0871489 0.996195 0
    outer loop
      vertex 6.09071 2.78418 0
      vertex 5.7 2.75 2
      vertex 6.09071 2.78418 2
    endloop
  endfacet
  facet normal -0.0871489 0.996195 0
    outer loop
      vertex 5.7 2.75 2
      vertex 6.09071 2.78418 0
      vertex 5.7 2.75 0
    endloop
  endfacet
  facet normal -0.573584 -0.819147 0
    outer loop
      vertex 6.825 6.94856 0
      vertex 7.14627 6.7236 2
      vertex 6.825 6.94856 2
    endloop
  endfacet
  facet normal -0.573584 -0.819147 -0
    outer loop
      vertex 7.14627 6.7236 2
      vertex 6.825 6.94856 0
      vertex 7.14627 6.7236 0
    endloop
  endfacet
  facet normal 0.819147 -0.573584 0
    outer loop
      vertex 3.75144 6.125 1.97825
      vertex 3.9764 6.44627 -0.00206475
      vertex 3.9764 6.44627 1.99794
    endloop
  endfacet
  facet normal 0.819147 -0.573584 0
    outer loop
      vertex 3.9764 6.44627 -0.00206475
      vertex 3.75144 6.125 1.97825
      vertex 3.75144 6.125 -0.0217457
    endloop
  endfacet
  facet normal 0.42262 -0.906307 0
    outer loop
      vertex 4.575 6.94856 0
      vertex 4.93045 7.11431 2
      vertex 4.575 6.94856 2
    endloop
  endfacet
  facet normal 0.42262 -0.906307 0
    outer loop
      vertex 4.93045 7.11431 2
      vertex 4.575 6.94856 0
      vertex 4.93045 7.11431 0
    endloop
  endfacet
  facet normal -0.906311 -0.42261 0
    outer loop
      vertex 7.81431 5.76954 0
      vertex 7.64856 6.125 2
      vertex 7.64856 6.125 0
    endloop
  endfacet
  facet normal -0.906311 -0.42261 0
    outer loop
      vertex 7.64856 6.125 2
      vertex 7.81431 5.76954 0
      vertex 7.81431 5.76954 2
    endloop
  endfacet
  facet normal -0.965924 -0.258826 0
    outer loop
      vertex 7.91582 5.39071 0
      vertex 7.81431 5.76954 2
      vertex 7.81431 5.76954 0
    endloop
  endfacet
  facet normal -0.965924 -0.258826 0
    outer loop
      vertex 7.81431 5.76954 2
      vertex 7.91582 5.39071 0
      vertex 7.91582 5.39071 2
    endloop
  endfacet
  facet normal -0.819147 -0.573584 0
    outer loop
      vertex 7.64856 6.125 0
      vertex 7.4236 6.44627 2
      vertex 7.4236 6.44627 0
    endloop
  endfacet
  facet normal -0.819147 -0.573584 0
    outer loop
      vertex 7.4236 6.44627 2
      vertex 7.64856 6.125 0
      vertex 7.64856 6.125 2
    endloop
  endfacet
  facet normal -0.258826 -0.965924 0
    outer loop
      vertex 6.09071 7.21582 0
      vertex 6.46954 7.11431 2
      vertex 6.09071 7.21582 2
    endloop
  endfacet
  facet normal -0.258826 -0.965924 -0
    outer loop
      vertex 6.46954 7.11431 2
      vertex 6.09071 7.21582 0
      vertex 6.46954 7.11431 0
    endloop
  endfacet
  facet normal -0.0871489 -0.996195 0
    outer loop
      vertex 5.7 7.25 0
      vertex 6.09071 7.21582 2
      vertex 5.7 7.25 2
    endloop
  endfacet
  facet normal -0.0871489 -0.996195 -0
    outer loop
      vertex 6.09071 7.21582 2
      vertex 5.7 7.25 0
      vertex 6.09071 7.21582 0
    endloop
  endfacet
  facet normal -0.42261 -0.906311 0
    outer loop
      vertex 6.46954 7.11431 0
      vertex 6.825 6.94856 2
      vertex 6.46954 7.11431 2
    endloop
  endfacet
  facet normal -0.42261 -0.906311 -0
    outer loop
      vertex 6.825 6.94856 2
      vertex 6.46954 7.11431 0
      vertex 6.825 6.94856 0
    endloop
  endfacet
  facet normal 0.965924 -0.258826 0
    outer loop
      vertex 3.48418 5.39071 1.95487
      vertex 3.58569 5.76954 -0.0483398
      vertex 3.58569 5.76954 1.96375
    endloop
  endfacet
  facet normal 0.965924 -0.258826 0
    outer loop
      vertex 3.58569 5.76954 -0.0483398
      vertex 3.48418 5.39071 1.95487
      vertex 3.48418 5.39071 -0.0755389
    endloop
  endfacet
  facet normal 0.906309 -0.422616 0
    outer loop
      vertex 3.75144 6.125 1.97825
      vertex 3.6527 5.91325 -0.0303841
      vertex 3.75144 6.125 -0.0217457
    endloop
  endfacet
  facet normal 0.906311 -0.42261 -7.11236e-07
    outer loop
      vertex 3.58569 5.76954 1.96375
      vertex 3.6527 5.91325 -0.0303841
      vertex 3.75144 6.125 1.97825
    endloop
  endfacet
  facet normal 0.906315 -0.422602 0
    outer loop
      vertex 3.6527 5.91325 -0.0303841
      vertex 3.58569 5.76954 1.96375
      vertex 3.58569 5.76954 -0.0483398
    endloop
  endfacet
  facet normal 0.996195 -0.0871489 0
    outer loop
      vertex 3.45 5 1.95188
      vertex 3.48418 5.39071 -0.0755389
      vertex 3.48418 5.39071 1.95487
    endloop
  endfacet
  facet normal 0.996195 -0.0871489 0
    outer loop
      vertex 3.48418 5.39071 -0.0755389
      vertex 3.45 5 1.95188
      vertex 3.45 5 -0.0846981
    endloop
  endfacet
  facet normal 0.573584 -0.819147 0
    outer loop
      vertex 4.25373 6.7236 0
      vertex 4.575 6.94856 2
      vertex 4.25373 6.7236 2
    endloop
  endfacet
  facet normal 0.573584 -0.819147 0
    outer loop
      vertex 4.575 6.94856 2
      vertex 4.25373 6.7236 0
      vertex 4.575 6.94856 0
    endloop
  endfacet
  facet normal 0.258819 -0.965926 0
    outer loop
      vertex 4.93045 7.11431 0
      vertex 5.30929 7.21582 2
      vertex 4.93045 7.11431 2
    endloop
  endfacet
  facet normal 0.258819 -0.965926 0
    outer loop
      vertex 5.30929 7.21582 2
      vertex 4.93045 7.11431 0
      vertex 5.30929 7.21582 0
    endloop
  endfacet
  facet normal -0.258826 0.965924 0
    outer loop
      vertex 6.46954 2.88569 0
      vertex 6.09071 2.78418 2
      vertex 6.46954 2.88569 2
    endloop
  endfacet
  facet normal -0.258826 0.965924 0
    outer loop
      vertex 6.09071 2.78418 2
      vertex 6.46954 2.88569 0
      vertex 6.09071 2.78418 0
    endloop
  endfacet
  facet normal -0.573584 0.819147 0
    outer loop
      vertex 7.14627 3.2764 0
      vertex 6.825 3.05144 2
      vertex 7.14627 3.2764 2
    endloop
  endfacet
  facet normal -0.573584 0.819147 0
    outer loop
      vertex 6.825 3.05144 2
      vertex 7.14627 3.2764 0
      vertex 6.825 3.05144 0
    endloop
  endfacet
  facet normal 0.573584 0.819147 -0
    outer loop
      vertex 4.575 3.05144 0
      vertex 4.25373 3.2764 2
      vertex 4.575 3.05144 2
    endloop
  endfacet
  facet normal 0.573584 0.819147 0
    outer loop
      vertex 4.25373 3.2764 2
      vertex 4.575 3.05144 0
      vertex 4.25373 3.2764 0
    endloop
  endfacet
  facet normal 0.819147 0.573584 -0
    outer loop
      vertex 3.9764 3.55373 -0.00206475
      vertex 3.75144 3.875 1.97825
      vertex 3.9764 3.55373 1.99794
    endloop
  endfacet
  facet normal 0.819147 0.573584 0
    outer loop
      vertex 3.75144 3.875 1.97825
      vertex 3.9764 3.55373 -0.00206475
      vertex 3.75144 3.875 -0.0217457
    endloop
  endfacet
  facet normal 0.965926 0.258819 -0
    outer loop
      vertex 3.58569 4.23045 -0.0483398
      vertex 3.48418 4.60929 1.95487
      vertex 3.58569 4.23045 1.96375
    endloop
  endfacet
  facet normal 0.965926 0.258819 0
    outer loop
      vertex 3.48418 4.60929 1.95487
      vertex 3.58569 4.23045 -0.0483398
      vertex 3.48418 4.60929 -0.0755389
    endloop
  endfacet
  facet normal -0.707107 -0.707107 0
    outer loop
      vertex 7.4236 6.44627 0
      vertex 7.14627 6.7236 2
      vertex 7.14627 6.7236 0
    endloop
  endfacet
  facet normal -0.707107 -0.707107 0
    outer loop
      vertex 7.14627 6.7236 2
      vertex 7.4236 6.44627 0
      vertex 7.4236 6.44627 2
    endloop
  endfacet
  facet normal 0.996195 0.0871489 -0
    outer loop
      vertex 3.48418 4.60929 -0.0755389
      vertex 3.45 5 1.95188
      vertex 3.48418 4.60929 1.95487
    endloop
  endfacet
  facet normal 0.996195 0.0871489 0
    outer loop
      vertex 3.45 5 1.95188
      vertex 3.48418 4.60929 -0.0755389
      vertex 3.45 5 -0.0846981
    endloop
  endfacet
  facet normal 0.707107 -0.707107 0
    outer loop
      vertex 4 6.46987 2
      vertex 4.25373 6.7236 0
      vertex 4.25373 6.7236 2
    endloop
  endfacet
  facet normal 0.707107 -0.707107 0
    outer loop
      vertex 4 6.46987 2
      vertex 4 6.46987 0
      vertex 4.25373 6.7236 0
    endloop
  endfacet
  facet normal 0.707107 -0.707107 0
    outer loop
      vertex 3.9764 6.44627 1.99794
      vertex 4 6.46987 0
      vertex 4 6.46987 2
    endloop
  endfacet
  facet normal 0.707107 -0.707107 0
    outer loop
      vertex 4 6.46987 0
      vertex 3.9764 6.44627 1.99794
      vertex 3.9764 6.44627 -0.00206475
    endloop
  endfacet
  facet normal -0.42261 0.906311 0
    outer loop
      vertex 6.825 3.05144 0
      vertex 6.46954 2.88569 2
      vertex 6.825 3.05144 2
    endloop
  endfacet
  facet normal -0.42261 0.906311 0
    outer loop
      vertex 6.46954 2.88569 2
      vertex 6.825 3.05144 0
      vertex 6.46954 2.88569 0
    endloop
  endfacet
  facet normal -0.707107 0.707107 0
    outer loop
      vertex 7.14627 3.2764 0
      vertex 7.4236 3.55373 2
      vertex 7.4236 3.55373 0
    endloop
  endfacet
  facet normal -0.707107 0.707107 0
    outer loop
      vertex 7.4236 3.55373 2
      vertex 7.14627 3.2764 0
      vertex 7.14627 3.2764 2
    endloop
  endfacet
  facet normal -0.965926 0.258819 0
    outer loop
      vertex 7.81431 4.23045 0
      vertex 7.91582 4.60929 2
      vertex 7.91582 4.60929 0
    endloop
  endfacet
  facet normal -0.965926 0.258819 0
    outer loop
      vertex 7.91582 4.60929 2
      vertex 7.81431 4.23045 0
      vertex 7.81431 4.23045 2
    endloop
  endfacet
  facet normal -0.819147 0.573584 0
    outer loop
      vertex 7.4236 3.55373 0
      vertex 7.64856 3.875 2
      vertex 7.64856 3.875 0
    endloop
  endfacet
  facet normal -0.819147 0.573584 0
    outer loop
      vertex 7.64856 3.875 2
      vertex 7.4236 3.55373 0
      vertex 7.4236 3.55373 2
    endloop
  endfacet
  facet normal 0.42262 0.906307 -0
    outer loop
      vertex 4.93045 2.88569 0
      vertex 4.575 3.05144 2
      vertex 4.93045 2.88569 2
    endloop
  endfacet
  facet normal 0.42262 0.906307 0
    outer loop
      vertex 4.575 3.05144 2
      vertex 4.93045 2.88569 0
      vertex 4.575 3.05144 0
    endloop
  endfacet
  facet normal 0.258819 0.965926 -0
    outer loop
      vertex 5.30929 2.78418 0
      vertex 4.93045 2.88569 2
      vertex 5.30929 2.78418 2
    endloop
  endfacet
  facet normal 0.258819 0.965926 0
    outer loop
      vertex 4.93045 2.88569 2
      vertex 5.30929 2.78418 0
      vertex 4.93045 2.88569 0
    endloop
  endfacet
  facet normal 0.707107 0.707107 -0
    outer loop
      vertex 4 3.53013 0
      vertex 3.9764 3.55373 1.99794
      vertex 4 3.53013 2
    endloop
  endfacet
  facet normal 0.707107 0.707107 0
    outer loop
      vertex 3.9764 3.55373 1.99794
      vertex 4 3.53013 0
      vertex 3.9764 3.55373 -0.00206475
    endloop
  endfacet
  facet normal 0.707107 0.707107 0
    outer loop
      vertex 4.25373 3.2764 2
      vertex 4 3.53013 0
      vertex 4 3.53013 2
    endloop
  endfacet
  facet normal 0.707107 0.707107 0
    outer loop
      vertex 4 3.53013 0
      vertex 4.25373 3.2764 2
      vertex 4.25373 3.2764 0
    endloop
  endfacet
  facet normal 0.906304 0.422626 0
    outer loop
      vertex 3.58569 4.23045 1.96375
      vertex 3.6527 4.08675 -0.0303841
      vertex 3.58569 4.23045 -0.0483398
    endloop
  endfacet
  facet normal 0.906307 0.42262 5.47559e-07
    outer loop
      vertex 3.75144 3.875 1.97825
      vertex 3.6527 4.08675 -0.0303841
      vertex 3.58569 4.23045 1.96375
    endloop
  endfacet
  facet normal 0.906309 0.422616 0
    outer loop
      vertex 3.6527 4.08675 -0.0303841
      vertex 3.75144 3.875 1.97825
      vertex 3.75144 3.875 -0.0217457
    endloop
  endfacet
  facet normal -0.996195 0.0871489 0
    outer loop
      vertex 7.91582 4.60929 0
      vertex 7.95 5 2
      vertex 7.95 5 0
    endloop
  endfacet
  facet normal -0.996195 0.0871489 0
    outer loop
      vertex 7.95 5 2
      vertex 7.91582 4.60929 0
      vertex 7.91582 4.60929 2
    endloop
  endfacet
  facet normal -0.906307 0.42262 0
    outer loop
      vertex 7.64856 3.875 0
      vertex 7.81431 4.23045 2
      vertex 7.81431 4.23045 0
    endloop
  endfacet
  facet normal -0.906307 0.42262 0
    outer loop
      vertex 7.81431 4.23045 2
      vertex 7.64856 3.875 0
      vertex 7.64856 3.875 2
    endloop
  endfacet
  facet normal 0.0871489 0.996195 -0
    outer loop
      vertex 5.7 2.75 0
      vertex 5.30929 2.78418 2
      vertex 5.7 2.75 2
    endloop
  endfacet
  facet normal 0.0871489 0.996195 0
    outer loop
      vertex 5.30929 2.78418 2
      vertex 5.7 2.75 0
      vertex 5.30929 2.78418 0
    endloop
  endfacet
  facet normal 0 0 -1
    outer loop
      vertex 0 0 -13
      vertex 2 10 -13
      vertex 2 0 -13
    endloop
  endfacet
  facet normal -0 0 -1
    outer loop
      vertex 2 10 -13
      vertex 0 0 -13
      vertex 0 10 -13
    endloop
  endfacet
  facet normal -1 0 0
    outer loop
      vertex 0 0 -13
      vertex 0 10 -2
      vertex 0 10 -13
    endloop
  endfacet
  facet normal -1 -0 0
    outer loop
      vertex 0 10 -2
      vertex 0 0 -13
      vertex 0 0 -2
    endloop
  endfacet
endsolid OpenSCAD_Model
